<svg width="533" height="324" viewBox="0 0 533 324" fill="none" xmlns="http://www.w3.org/2000/svg">
<path d="M354.467 113.552C344.559 113.552 336.524 105.514 336.524 95.6023C336.524 85.691 344.559 77.6527 354.467 77.6527H394.209C404.148 77.6527 412.613 69.9188 412.971 59.9841C413.346 49.5499 404.998 40.9731 394.653 40.9731H159.903C149.488 40.9731 141.047 49.4173 141.047 59.8358C141.047 70.2544 149.488 78.6985 159.903 78.6985H194.34C204.076 78.6985 212.369 86.2763 212.72 96.0081C213.087 106.232 204.911 114.629 194.769 114.629H58.5215C42.3254 114.629 29.1953 127.763 29.1953 143.965C29.1953 160.166 42.3254 173.301 58.5215 173.301H280.773L402.275 172.965H486.026C502.425 172.965 515.726 159.667 515.726 143.255C515.726 126.85 502.432 113.544 486.026 113.544H354.467V113.552Z" stroke="#B6C8EF" stroke-linecap="round" stroke-linejoin="round" stroke-dasharray="3 3"/>
<path d="M176.684 44.8287C173.158 41.4573 170.95 36.7046 170.95 31.4368C170.95 21.2055 179.243 12.9175 189.463 12.9175C199.691 12.9175 207.977 21.2133 207.977 31.4368C207.977 41.668 199.683 49.9561 189.463 49.9561C186.148 49.9561 183.035 49.082 180.343 47.5524L180.359 47.568L174.812 50.6584L176.653 44.8131L176.684 44.8287Z" fill="white" stroke="#B6C8EF" stroke-miterlimit="10"/>
<path d="M198.482 39.0457L180.71 38.8349L178.721 26.0595L200.198 26.0205L198.482 39.0457Z" fill="#9FBDFD"/>
<path d="M200.198 26.0204L178.721 26.0594L189.44 17.2017L200.198 26.0204Z" fill="#9FBDFD"/>
<path d="M196.63 24.7588L181.971 24.7847L181.993 37.1699L196.652 37.1441L196.63 24.7588Z" fill="white"/>
<path d="M178.721 26.0596L178.744 40.0212L189.471 33.5126L178.721 26.0596Z" fill="#E3F1FC"/>
<path d="M200.198 26.0205L200.222 39.99L189.471 33.5125L200.198 26.0205Z" fill="#E3F1FC"/>
<path d="M200.222 39.9896L178.744 40.0208L189.464 31.1709L200.222 39.9896Z" fill="#E3F1FC"/>
<path d="M178.744 40.0208L189.464 31.1709L200.222 39.9896" stroke="#9FBDFD" stroke-width="0.5" stroke-miterlimit="10" stroke-linejoin="round"/>
<path d="M191.008 32.4355L200.199 26.0205" stroke="#9FBDFD" stroke-width="0.5" stroke-miterlimit="10" stroke-linejoin="round"/>
<path d="M187.927 32.4434L178.721 26.0596" stroke="#9FBDFD" stroke-width="0.5" stroke-miterlimit="10" stroke-linejoin="round"/>
<path d="M189.472 1.39062V7.8993" stroke="#B6C8EF" stroke-miterlimit="10" stroke-linecap="round" stroke-linejoin="round"/>
<path d="M159.615 31.2573H166.121" stroke="#B6C8EF" stroke-miterlimit="10" stroke-linecap="round" stroke-linejoin="round"/>
<path d="M212.822 31.2573H219.328" stroke="#B6C8EF" stroke-miterlimit="10" stroke-linecap="round" stroke-linejoin="round"/>
<path d="M172.956 14.7436L168.36 10.1392" stroke="#B6C8EF" stroke-miterlimit="10" stroke-linecap="round" stroke-linejoin="round"/>
<path d="M205.979 14.7436L210.582 10.1392" stroke="#B6C8EF" stroke-miterlimit="10" stroke-linecap="round" stroke-linejoin="round"/>
<path d="M336.922 66.5006C342.071 61.5761 345.293 54.6382 345.293 46.9511C345.293 32.0139 333.185 19.9097 318.261 19.9097C303.328 19.9097 291.228 32.0217 291.228 46.9511C291.228 61.8883 303.336 73.9926 318.261 73.9926C323.105 73.9926 327.646 72.7127 331.578 70.4807L331.554 70.5041L339.653 75.0149L336.961 66.4771L336.922 66.5006Z" fill="white" stroke="#B6C8EF" stroke-miterlimit="10"/>
<path d="M318.252 3.06836V12.5738" stroke="#B6C8EF" stroke-miterlimit="10" stroke-linecap="round" stroke-linejoin="round"/>
<path d="M361.848 46.6782H352.346" stroke="#B6C8EF" stroke-miterlimit="10" stroke-linecap="round" stroke-linejoin="round"/>
<path d="M284.16 46.6782H274.657" stroke="#B6C8EF" stroke-miterlimit="10" stroke-linecap="round" stroke-linejoin="round"/>
<path d="M342.359 22.5631L349.084 15.8438" stroke="#B6C8EF" stroke-miterlimit="10" stroke-linecap="round" stroke-linejoin="round"/>
<path d="M294.146 22.5631L287.429 15.8438" stroke="#B6C8EF" stroke-miterlimit="10" stroke-linecap="round" stroke-linejoin="round"/>
<path d="M304.912 41.9018C304.912 34.5346 310.88 28.5566 318.252 28.5566C325.617 28.5566 331.593 34.5268 331.593 41.9018C331.593 44.8361 330.641 47.552 329.034 49.7606C327.131 52.6325 322.184 55.8712 322.184 57.8145V60.0309C322.184 60.4757 321.826 60.8347 321.381 60.8347H319.235H317.269H315.124C314.679 60.8347 314.32 60.4757 314.32 60.0309V57.8145C314.32 55.8712 309.374 52.6325 307.471 49.7606C305.863 47.552 304.912 44.8361 304.912 41.9018Z" fill="#FFCD5C"/>
<path d="M319.766 60.6083C319.75 60.2727 319.508 54.9191 319.937 50.221C319.415 50.2834 318.853 50.3146 318.252 50.3146C317.652 50.3146 317.09 50.2834 316.567 50.221C316.996 54.9113 316.754 60.2727 316.739 60.6083L316.505 60.6005C316.505 60.5147 316.754 54.9815 316.317 50.1975C312.362 49.6435 310.591 47.4037 310.271 45.2887C310.084 44.0557 310.505 42.8226 311.278 42.3622C311.746 42.0812 312.307 42.0266 312.908 42.1983C313.852 42.4714 314.749 43.2831 315.303 44.3678C315.951 45.6243 316.325 47.7158 316.544 49.9868C317.074 50.0493 317.644 50.0883 318.252 50.0883C318.861 50.0883 319.43 50.0571 319.961 49.9868C320.179 47.7158 320.562 45.6321 321.201 44.3678C321.755 43.2752 322.652 42.4636 323.596 42.1983C324.197 42.0266 324.759 42.0812 325.227 42.3622C325.991 42.8226 326.413 44.0557 326.233 45.2887C325.913 47.4037 324.142 49.6435 320.187 50.1975C319.75 54.9815 320 60.5225 320 60.6005L319.766 60.6083ZM324.267 42.3309C324.08 42.3309 323.877 42.3622 323.674 42.4168C322.793 42.6665 321.95 43.4391 321.428 44.4693C320.811 45.6789 320.437 47.7158 320.218 49.9478C324.01 49.4015 325.703 47.2632 326.007 45.2497C326.179 44.1259 325.796 42.9631 325.118 42.5573C324.86 42.409 324.572 42.3309 324.267 42.3309ZM312.245 42.3309C311.941 42.3309 311.652 42.409 311.402 42.5573C310.724 42.9631 310.341 44.1181 310.513 45.2497C310.817 47.271 312.51 49.4015 316.302 49.9478C316.083 47.7236 315.717 45.6789 315.093 44.4693C314.562 43.4391 313.72 42.6665 312.846 42.4168C312.635 42.3622 312.432 42.3309 312.245 42.3309Z" fill="white"/>
<path d="M329.37 42.6667C328.948 42.6667 328.605 42.3233 328.605 41.9019C328.605 37.1569 325.399 33.0285 320.804 31.8657C320.39 31.7643 320.148 31.3428 320.25 30.937C320.351 30.5234 320.772 30.2815 321.178 30.3829C326.452 31.7174 330.134 36.4546 330.134 41.9097C330.134 42.3233 329.791 42.6667 329.37 42.6667Z" fill="#FFEE99"/>
<path d="M317.995 30.7575C317.995 31.1789 318.338 31.5223 318.76 31.5223C319.181 31.5223 319.524 31.1789 319.524 30.7575C319.524 30.3361 319.181 29.9927 318.76 29.9927C318.338 29.9927 317.995 30.3361 317.995 30.7575Z" fill="#FFEE99"/>
<g opacity="0.55">
<g opacity="0.55">
<path opacity="0.55" d="M331.562 42.6899C330.829 48.1607 326.413 53.8265 318.252 53.8265C310.092 53.8265 305.84 47.8953 304.943 42.6899C305.099 45.3199 306.012 47.7548 307.478 49.7605C309.382 52.6325 314.328 55.8712 314.328 57.8144V60.0308C314.328 60.4756 314.687 60.8346 315.132 60.8346H317.277H319.243H321.389C321.833 60.8346 322.192 60.4756 322.192 60.0308V57.8144C322.192 55.8712 327.138 52.6325 329.042 49.7605C330.493 47.7548 331.414 45.3199 331.562 42.6899Z" fill="#FFCD5C"/>
</g>
</g>
<path d="M322.496 58.7588H314.008V62.8092C314.008 63.4725 314.196 64.1203 314.547 64.6743C315.218 65.7279 316.38 66.3679 317.628 66.3679H318.877C320.125 66.3679 321.287 65.7279 321.958 64.6743C322.309 64.1203 322.496 63.4725 322.496 62.8092V58.7588Z" fill="#28364C"/>
<path d="M322.497 61.4824C322.473 61.4824 322.45 61.4824 322.426 61.4746L313.938 60.2962C313.65 60.2571 313.447 59.9918 313.486 59.6952C313.525 59.4065 313.798 59.2036 314.086 59.2426L322.575 60.421C322.863 60.46 323.066 60.7254 323.027 61.022C322.988 61.2873 322.762 61.4824 322.497 61.4824Z" fill="#475577"/>
<path d="M322.497 63.332C322.473 63.332 322.45 63.332 322.426 63.3242L313.938 62.1458C313.65 62.1067 313.447 61.8414 313.486 61.5449C313.525 61.2561 313.798 61.0532 314.086 61.0922L322.575 62.2706C322.863 62.3097 323.066 62.575 323.027 62.8716C322.988 63.1447 322.762 63.332 322.497 63.332Z" fill="#475577"/>
<path d="M322.161 65.1582C322.137 65.1582 322.114 65.1582 322.091 65.1504L314.039 64.0344C313.751 63.9954 313.548 63.7301 313.587 63.4335C313.626 63.1448 313.899 62.9419 314.188 62.9809L322.239 64.0969C322.527 64.1359 322.73 64.4012 322.691 64.6978C322.644 64.9631 322.418 65.1582 322.161 65.1582Z" fill="#475577"/>
<path d="M421.757 95.5791C421.757 96.9916 420.61 98.131 419.205 98.131C417.793 98.131 416.654 96.9838 416.654 95.5791C416.654 94.1665 417.801 93.0271 419.205 93.0271C420.61 93.0271 421.757 94.1665 421.757 95.5791Z" stroke="#B6C8EF" stroke-miterlimit="10" stroke-linecap="round" stroke-linejoin="round"/>
<path d="M246.837 12.4412C246.837 13.8537 245.69 14.9931 244.285 14.9931C242.873 14.9931 241.734 13.8459 241.734 12.4412C241.734 11.0286 242.881 9.8892 244.285 9.8892C245.69 9.8814 246.837 11.0286 246.837 12.4412Z" stroke="#B6C8EF" stroke-miterlimit="10" stroke-linecap="round" stroke-linejoin="round"/>
<path d="M275.016 69.7473C275.016 71.1598 273.869 72.2992 272.465 72.2992C271.053 72.2992 269.914 71.152 269.914 69.7473C269.914 68.3347 271.06 67.1953 272.465 67.1953C273.869 67.1953 275.016 68.3347 275.016 69.7473Z" stroke="#B6C8EF" stroke-miterlimit="10" stroke-linecap="round" stroke-linejoin="round"/>
<path d="M497.471 52.8122C497.471 54.2248 496.324 55.3642 494.92 55.3642C493.508 55.3642 492.369 54.217 492.369 52.8122C492.369 51.3997 493.515 50.2603 494.92 50.2603C496.324 50.2603 497.471 51.3997 497.471 52.8122Z" stroke="#B6C8EF" stroke-miterlimit="10" stroke-linecap="round" stroke-linejoin="round"/>
<path d="M67.2595 96.6325C67.2595 98.0451 66.1126 99.1845 64.7084 99.1845C63.2963 99.1845 62.1572 98.0373 62.1572 96.6325C62.1572 95.22 63.3041 94.0806 64.7084 94.0806C66.1126 94.0806 67.2595 95.22 67.2595 96.6325Z" stroke="#B6C8EF" stroke-miterlimit="10" stroke-linecap="round" stroke-linejoin="round"/>
<path d="M25.5055 108.378L19.1472 110.079C18.6089 110.22 18.4997 111.047 18.9522 111.484L23.5317 115.901C23.9062 116.268 24.4445 116.12 24.5927 115.62L26.3637 109.509C26.5509 108.893 26.0438 108.237 25.5055 108.378Z" stroke="#B6C8EF" stroke-miterlimit="10" stroke-linecap="round" stroke-linejoin="round"/>
<path d="M501.98 135.006L496.644 131.15C496.191 130.823 495.489 131.26 495.434 131.892L494.912 138.237C494.873 138.759 495.317 139.087 495.801 138.876L501.652 136.387C502.245 136.137 502.432 135.333 501.98 135.006Z" stroke="#B6C8EF" stroke-miterlimit="10" stroke-linecap="round" stroke-linejoin="round"/>
<path d="M44.3306 149.162H66.9396" stroke="#B6C8EF" stroke-miterlimit="10" stroke-linecap="round" stroke-linejoin="round"/>
<path d="M301.775 92.426H321.638" stroke="#B6C8EF" stroke-miterlimit="10" stroke-linecap="round" stroke-linejoin="round"/>
<path d="M445.278 123.752H459.29" stroke="#B6C8EF" stroke-miterlimit="10" stroke-linecap="round" stroke-linejoin="round"/>
<path d="M462.652 123.752H469.666" stroke="#B6C8EF" stroke-miterlimit="10" stroke-linecap="round" stroke-linejoin="round"/>
<path d="M209.327 69.7471H222.816" stroke="#B6C8EF" stroke-miterlimit="10" stroke-linecap="round" stroke-linejoin="round"/>
<path d="M220.101 76.0295H230.68" stroke="#B6C8EF" stroke-miterlimit="10" stroke-linecap="round" stroke-linejoin="round"/>
<path d="M107.211 50.2915H118.134" stroke="#B6C8EF" stroke-miterlimit="10" stroke-linecap="round" stroke-linejoin="round"/>
<path d="M115.855 46.3657H122.838" stroke="#B6C8EF" stroke-miterlimit="10" stroke-linecap="round" stroke-linejoin="round"/>
<path d="M59.2393 154.493H70.1615" stroke="#B6C8EF" stroke-miterlimit="10" stroke-linecap="round" stroke-linejoin="round"/>
<path d="M14.1069 151.441V155.913" stroke="#B6C8EF" stroke-miterlimit="10" stroke-linecap="round" stroke-linejoin="round"/>
<path d="M16.3385 153.681H11.8682" stroke="#B6C8EF" stroke-miterlimit="10" stroke-linecap="round" stroke-linejoin="round"/>
<path d="M16.3385 153.681H11.8682" stroke="#B6C8EF" stroke-miterlimit="10" stroke-linecap="round" stroke-linejoin="round"/>
<path d="M89.0801 58.5952V63.0592" stroke="#B6C8EF" stroke-miterlimit="10" stroke-linecap="round" stroke-linejoin="round"/>
<path d="M91.3194 60.8271H86.8491" stroke="#B6C8EF" stroke-miterlimit="10" stroke-linecap="round" stroke-linejoin="round"/>
<path d="M91.3194 60.8271H86.8491" stroke="#B6C8EF" stroke-miterlimit="10" stroke-linecap="round" stroke-linejoin="round"/>
<path d="M292.304 109.993V114.465" stroke="#B6C8EF" stroke-miterlimit="10" stroke-linecap="round" stroke-linejoin="round"/>
<path d="M294.544 112.225H290.073" stroke="#B6C8EF" stroke-miterlimit="10" stroke-linecap="round" stroke-linejoin="round"/>
<path d="M294.544 112.225H290.073" stroke="#B6C8EF" stroke-miterlimit="10" stroke-linecap="round" stroke-linejoin="round"/>
<path d="M394.442 10.6851V15.1568" stroke="#B6C8EF" stroke-miterlimit="10" stroke-linecap="round" stroke-linejoin="round"/>
<path d="M396.674 12.917H392.211" stroke="#B6C8EF" stroke-miterlimit="10" stroke-linecap="round" stroke-linejoin="round"/>
<path d="M396.674 12.917H392.211" stroke="#B6C8EF" stroke-miterlimit="10" stroke-linecap="round" stroke-linejoin="round"/>
<path d="M480.159 102.275V106.739" stroke="#B6C8EF" stroke-miterlimit="10" stroke-linecap="round" stroke-linejoin="round"/>
<path d="M482.39 104.507H477.928" stroke="#B6C8EF" stroke-miterlimit="10" stroke-linecap="round" stroke-linejoin="round"/>
<path d="M482.39 104.507H477.928" stroke="#B6C8EF" stroke-miterlimit="10" stroke-linecap="round" stroke-linejoin="round"/>
<path d="M529.379 182.908V187.38" stroke="#B6C8EF" stroke-miterlimit="10" stroke-linecap="round" stroke-linejoin="round"/>
<path d="M531.61 185.14H527.148" stroke="#B6C8EF" stroke-miterlimit="10" stroke-linecap="round" stroke-linejoin="round"/>
<path d="M531.61 185.14H527.148" stroke="#B6C8EF" stroke-miterlimit="10" stroke-linecap="round" stroke-linejoin="round"/>
<path d="M138.754 28.9863C138.746 28.9785 138.66 28.9863 138.644 28.9863C132.801 28.9863 126.965 28.9863 121.122 28.9863C110.761 28.9863 100.393 28.9863 90.0325 28.9863C82.387 28.9863 80.0231 28.7444 72.3853 28.9629C72.2995 24.2492 73.6102 19.8086 75.8648 17.4362C77.7138 15.4851 80.8969 14.416 83.5026 15.1027C86.7949 15.9768 89.0261 18.1776 91.1638 19.8164C91.9205 13.3234 94.5965 7.41561 97.483 6.12012C102.445 3.89593 107.625 7.42342 109.95 10.8416C111.869 13.6589 112.915 17.0147 113.305 20.4018C116.418 16.9601 123.384 14.3301 125.889 19.793C126.872 21.9392 126.794 24.3975 126.692 26.7543C130.772 25.654 135.329 26.5124 138.754 28.9863Z" fill="#E3F1FC"/>
<path d="M414.54 84.5518C415.632 80.1112 425.953 73.626 431.469 77.5359C431.726 72.2524 434.192 66.532 440.277 63.2308C447.751 59.1805 454.921 67.2344 456.52 72.3227C458.002 67.6324 465.539 61.311 471.593 66.6412C477.194 71.5735 477.756 79.8381 477.171 84.544H414.54V84.5518Z" fill="#E3F1FC"/>
<path d="M388.709 234.634L402.658 143.106C403.001 140.882 404.913 139.236 407.167 139.236H468.738L453.041 240.323C451.98 247.175 446.269 251.998 439.216 251.998H346.705C344.146 251.998 342.079 249.922 342.079 247.37C342.079 244.81 344.154 242.742 346.705 242.742H379.152C384.036 242.734 387.991 239.386 388.709 234.634Z" fill="#C7D2EF"/>
<path d="M450.693 234.634L464.696 142.763C465.008 140.695 466.733 139.236 468.862 139.236H468.987C471.967 139.236 474.409 142.029 473.957 144.925L459.142 240.323C458.081 247.175 452.37 251.998 445.317 251.998H378.216C375.657 251.998 373.589 249.922 373.589 247.37C373.589 244.81 375.665 242.742 378.216 242.742H441.12C446.019 242.734 449.967 239.386 450.693 234.634Z" fill="#E3EDFF"/>
<path d="M406.364 251.998V307.97" stroke="#114093" stroke-miterlimit="10"/>
<path d="M435.542 312.574C435.542 310.03 433.482 307.977 430.947 307.977H381.781C379.238 307.977 377.186 310.038 377.186 312.574" stroke="#114093" stroke-miterlimit="10"/>
<path d="M411.396 312.574C411.396 310.03 409.336 307.977 406.801 307.977" stroke="#114093" stroke-miterlimit="10"/>
<path d="M430.9 317.217C430.9 319.785 432.975 321.861 435.542 321.861C438.109 321.861 440.184 319.785 440.184 317.217C440.184 314.65 438.109 312.574 435.542 312.574C432.975 312.574 430.9 314.65 430.9 317.217Z" fill="#E3EDFF"/>
<g opacity="0.45">
<path opacity="0.45" d="M433.841 317.217C433.841 318.162 434.606 318.926 435.55 318.926C436.494 318.926 437.258 318.162 437.258 317.217C437.258 316.273 436.494 315.508 435.55 315.508C434.598 315.508 433.841 316.273 433.841 317.217Z" fill="#B7C2CE"/>
</g>
<path d="M406.746 317.217C406.746 319.785 408.821 321.861 411.388 321.861C413.955 321.861 416.03 319.785 416.03 317.217C416.03 314.65 413.955 312.574 411.388 312.574C408.829 312.574 406.746 314.65 406.746 317.217Z" fill="#E3EDFF"/>
<g opacity="0.45">
<path opacity="0.45" d="M409.688 317.217C409.688 318.162 410.452 318.926 411.396 318.926C412.34 318.926 413.105 318.162 413.105 317.217C413.105 316.273 412.34 315.508 411.396 315.508C410.452 315.508 409.688 316.273 409.688 317.217Z" fill="#B7C2CE"/>
</g>
<path d="M372.536 317.217C372.536 319.785 374.611 321.861 377.178 321.861C379.745 321.861 381.82 319.785 381.82 317.217C381.82 314.65 379.745 312.574 377.178 312.574C374.619 312.574 372.536 314.65 372.536 317.217Z" fill="#E3EDFF"/>
<g opacity="0.45">
<path opacity="0.45" d="M375.478 317.217C375.478 318.162 376.242 318.926 377.186 318.926C378.13 318.926 378.895 318.162 378.895 317.217C378.895 316.273 378.13 315.508 377.186 315.508C376.242 315.508 375.478 316.273 375.478 317.217Z" fill="#B7C2CE"/>
</g>
<path d="M255.543 234.634L241.594 143.106C241.25 140.882 239.339 139.236 237.084 139.236H175.514L191.211 240.323C192.272 247.175 197.983 251.998 205.035 251.998H297.555C300.113 251.998 302.181 249.922 302.181 247.37C302.181 244.81 300.106 242.742 297.555 242.742H265.108C260.224 242.734 256.268 239.386 255.543 234.634Z" fill="#C7D2EF"/>
<path d="M193.567 234.634L179.563 142.763C179.251 140.695 177.527 139.236 175.397 139.236H175.272C172.292 139.236 169.85 142.029 170.303 144.925L185.118 240.323C186.179 247.175 191.89 251.998 198.942 251.998H266.044C268.603 251.998 270.67 249.922 270.67 247.37C270.67 244.81 268.595 242.742 266.044 242.742H203.14C198.24 242.734 194.285 239.386 193.567 234.634Z" fill="#E3EDFF"/>
<path d="M237.896 251.998V307.97" stroke="#114093" stroke-miterlimit="10"/>
<path d="M208.71 312.574C208.71 310.03 210.77 307.977 213.305 307.977H262.471C265.014 307.977 267.066 310.038 267.066 312.574" stroke="#114093" stroke-miterlimit="10"/>
<path d="M232.864 312.574C232.864 310.03 234.923 307.977 237.459 307.977" stroke="#114093" stroke-miterlimit="10"/>
<path d="M213.36 317.217C213.36 319.785 211.284 321.861 208.718 321.861C206.151 321.861 204.076 319.785 204.076 317.217C204.076 314.65 206.151 312.574 208.718 312.574C211.277 312.574 213.36 314.65 213.36 317.217Z" fill="#E3EDFF"/>
<g opacity="0.45">
<path opacity="0.45" d="M210.419 317.217C210.419 318.162 209.654 318.926 208.71 318.926C207.766 318.926 207.001 318.162 207.001 317.217C207.001 316.273 207.766 315.508 208.71 315.508C209.654 315.508 210.419 316.273 210.419 317.217Z" fill="#B7C2CE"/>
</g>
<path d="M237.506 317.217C237.506 319.785 235.43 321.861 232.864 321.861C230.297 321.861 228.222 319.785 228.222 317.217C228.222 314.65 230.297 312.574 232.864 312.574C235.43 312.574 237.506 314.65 237.506 317.217Z" fill="#E3EDFF"/>
<g opacity="0.45">
<path opacity="0.45" d="M234.572 317.217C234.572 318.162 233.808 318.926 232.864 318.926C231.92 318.926 231.155 318.162 231.155 317.217C231.155 316.273 231.92 315.508 232.864 315.508C233.808 315.508 234.572 316.273 234.572 317.217Z" fill="#B7C2CE"/>
</g>
<path d="M271.716 317.217C271.716 319.785 269.64 321.861 267.074 321.861C264.507 321.861 262.432 319.785 262.432 317.217C262.432 314.65 264.507 312.574 267.074 312.574C269.64 312.574 271.716 314.65 271.716 317.217Z" fill="#E3EDFF"/>
<g opacity="0.45">
<path opacity="0.45" d="M268.782 317.217C268.782 318.162 268.018 318.926 267.074 318.926C266.13 318.926 265.365 318.162 265.365 317.217C265.365 316.273 266.13 315.508 267.074 315.508C268.018 315.508 268.782 316.273 268.782 317.217Z" fill="#B7C2CE"/>
</g>
<path d="M286.109 284.674L288.247 310.529L288.021 319.012L321.263 318.841C322.075 318.833 322.73 318.177 322.722 317.366C322.722 316.757 322.34 316.211 321.77 316L307.431 309.406L306.604 282.458" fill="#F9A895"/>
<path d="M324.174 318.482C323.83 317.42 323.206 316.219 322.582 315.953L307.384 309.406C299.006 312.8 288.161 310.209 288.161 310.209L286.227 321.658C286.227 322.041 286.539 322.345 286.913 322.337H323.924C324.665 322.329 324.189 318.521 324.174 318.482Z" fill="#FF8D27"/>
<path d="M310.669 310.061C309.819 311.169 309.093 312.379 308.523 313.659" stroke="#DD5E17" stroke-width="0.75" stroke-miterlimit="10"/>
<path d="M312.588 311.2C311.706 312.426 311.355 313.128 310.825 314.26" stroke="#DD5E17" stroke-width="0.75" stroke-miterlimit="10"/>
<path d="M314.203 312.043C313.602 312.847 313.017 313.963 312.549 314.853" stroke="#DD5E17" stroke-width="0.75" stroke-miterlimit="10"/>
<path d="M286.421 319.863L324.329 319.668" stroke="#DD5E17" stroke-width="0.75" stroke-miterlimit="10"/>
<path d="M287.475 314.268C287.475 314.268 296.384 314.447 297.149 319.816" stroke="#DD5E17" stroke-width="0.75" stroke-miterlimit="10"/>
<path d="M319.469 314.611C319.469 314.611 317.012 318.099 316.528 319.715" stroke="#DD5E17" stroke-width="0.75" stroke-miterlimit="10"/>
<path d="M270.351 284.674L270.803 310.529L270.577 319.012L303.819 318.841C304.631 318.833 305.286 318.177 305.278 317.366C305.278 316.757 304.896 316.211 304.327 316L289.987 309.406L290.845 282.458" fill="#FFCBBB"/>
<path d="M306.737 318.482C306.394 317.42 305.77 316.219 305.145 315.953L289.948 309.406C281.569 312.8 270.725 310.209 270.725 310.209L268.79 321.658C268.79 322.041 269.102 322.345 269.477 322.337H306.487C307.221 322.329 306.745 318.521 306.737 318.482Z" fill="#FFB548"/>
<path d="M293.232 310.061C292.382 311.169 291.656 312.379 291.087 313.659" stroke="#ED841B" stroke-width="0.75" stroke-miterlimit="10"/>
<path d="M295.144 311.2C294.262 312.426 293.911 313.128 293.381 314.26" stroke="#ED841B" stroke-width="0.75" stroke-miterlimit="10"/>
<path d="M296.767 312.043C296.166 312.847 295.581 313.963 295.113 314.853" stroke="#ED841B" stroke-width="0.75" stroke-miterlimit="10"/>
<path d="M268.977 319.863L306.893 319.668" stroke="#ED841B" stroke-width="0.75" stroke-miterlimit="10"/>
<path d="M270.031 314.268C270.031 314.268 278.94 314.447 279.705 319.816" stroke="#ED841B" stroke-width="0.75" stroke-miterlimit="10"/>
<path d="M302.025 314.611C302.025 314.611 299.567 318.099 299.083 319.715" stroke="#ED841B" stroke-width="0.75" stroke-miterlimit="10"/>
<path d="M218.688 203.441C218.688 203.441 212.759 226.307 220.927 237.615C224.524 242.594 230.687 242.735 236.632 242.735H271.724C274.673 242.735 277.138 244.998 277.387 247.932L282.131 303.373H310.607C310.607 303.373 307.759 255.651 306.995 246.176C306.378 238.513 304.982 228.149 301.986 221.445C297.96 212.447 290.432 207.842 282.786 207.842H269.609C268.938 207.842 268.392 207.296 268.392 206.625V203.761" fill="#1A53E2"/>
<path d="M282.49 297.473H310.232" stroke="#2A36C6" stroke-width="0.75" stroke-miterlimit="10"/>
<path d="M201.837 203.441C201.837 203.441 195.907 226.307 204.076 237.615C207.672 242.594 213.836 242.735 219.78 242.735H254.872C257.821 242.735 260.286 244.998 260.536 247.932L265.279 303.373H293.755C293.755 303.373 290.673 255.666 290.143 246.176C289.605 236.679 288.817 227.797 285.134 221.445C279.369 211.518 269.282 207.998 258.188 207.998C247.094 207.998 237.225 207.998 237.225 207.998V202.457" fill="#4868EF"/>
<path d="M207.009 205.228C207.009 205.228 203.335 225.917 209.084 232.675C212.189 236.327 217.916 236.507 222.254 236.507H260.357C263.188 236.507 265.545 238.684 265.771 241.509L270.662 303.381" stroke="#1D2EA8" stroke-width="0.75" stroke-miterlimit="10"/>
<path d="M264.765 297.473H293.365" stroke="#1D2EA8" stroke-width="0.75" stroke-miterlimit="10"/>
<path d="M220.451 206.492C217.635 212.946 206.127 212.447 206.127 212.447" stroke="#1D2EA8" stroke-width="0.75" stroke-miterlimit="10"/>
<path d="M229.236 111.508C229.213 111.133 228.752 110.93 228.386 110.985C227.855 111.055 227.41 111.461 227.176 111.937C226.934 112.413 226.872 112.959 226.856 113.49C226.841 113.989 226.872 114.504 227.098 114.941C227.504 115.722 228.565 116.089 229.369 115.73" fill="#F9BBAF"/>
<path d="M229.829 105.077C229.829 105.077 226.739 116.861 228.44 119.281C230.984 122.902 237.03 123.183 239.581 121.505C241.719 120.1 243.474 112.592 243.474 110.641C243.466 105.358 232.614 102.291 229.829 105.077Z" fill="#FFCBBB"/>
<path d="M229.751 109.361C229.657 109.58 229.579 109.806 229.517 110.032C229.408 110.415 230 110.579 230.11 110.196C230.172 109.97 230.227 109.736 230.273 109.502C230.328 109.158 229.883 109.041 229.751 109.361Z" fill="#00276F"/>
<path d="M230.999 108.16C230.999 108.16 230.203 107.059 229.025 107.902" stroke="#00276F" stroke-width="0.5" stroke-miterlimit="10" stroke-linecap="round" stroke-linejoin="round"/>
<path d="M236.016 110.805C235.938 111.032 235.867 111.258 235.82 111.484C235.735 111.867 236.328 112.038 236.413 111.648C236.476 111.391 236.515 111.133 236.546 110.875C236.585 110.563 236.109 110.54 236.016 110.805Z" fill="#00276F"/>
<path d="M235.743 108.737C235.743 108.737 237.038 108.308 238.364 109.853" stroke="#00276F" stroke-width="0.5" stroke-miterlimit="10" stroke-linecap="round" stroke-linejoin="round"/>
<path d="M231.725 120.67L230.679 129.582C230.679 129.582 231.132 133.484 236.975 133.484C242.818 133.484 247.008 129.309 247.008 129.309L244.972 114.028" fill="#FFCBBB"/>
<path d="M232.06 122.152C232.06 122.152 236.117 122.948 238.91 121.45C241.11 120.264 241.906 117.524 241.906 117.524" stroke="#F7A794" stroke-miterlimit="10"/>
<path d="M233.082 110.056C233.082 110.056 231.132 112.78 231.327 113.412C231.592 114.262 233.082 114.044 233.082 114.044" stroke="#F7A794" stroke-width="0.5" stroke-miterlimit="10" stroke-linejoin="round"/>
<path d="M239.37 113.396C238.848 114.325 237.537 114.988 236.102 115.144C233.48 115.433 230.539 114.286 227.926 114.567C227.34 114.629 227.301 117.329 227.317 118.188C227.325 119.21 227.543 120.295 228.066 121.177C228.573 122.035 229.517 122.543 230.453 122.87C232.443 123.549 234.588 123.573 236.64 123.222C237.646 123.05 238.512 122.948 239.386 122.418C240.268 121.879 241.071 121.294 241.742 120.498C242.499 119.6 243.092 118.508 244.083 117.844C245.245 117.064 246.493 117.119 247.149 115.659C247.547 114.77 247.593 113.771 247.64 112.803C247.726 110.891 247.703 108.971 247.593 107.043C247.313 102.33 243.482 100.191 239.62 99.7232C237.88 99.5124 235.353 99.45 233.605 99.3876C232.193 99.3408 230.25 98.7632 228.955 99.4734C226.693 100.714 227.473 104.648 229.759 105.373C232.263 106.162 236.148 105.295 238.754 105.623C240.572 105.849 240.564 108.472 240.603 108.784C240.814 110.516 240.158 112.007 239.37 113.396Z" fill="#011E3B"/>
<path d="M233.691 117.103L229.759 116.635C229.759 116.635 229.111 119.468 231.483 119.655C233.675 119.834 233.691 117.103 233.691 117.103Z" fill="white"/>
<path d="M243.622 112.093C244.067 112.265 244.41 112.647 244.636 113.084C245.697 115.16 243.224 117.946 241.024 116.994C240.213 116.643 240.517 114.489 242.108 112.413C242.459 111.96 243.177 111.929 243.622 112.093Z" fill="#FFCBBB"/>
<path d="M277.13 155.656C277.13 155.656 280.399 172.762 282.809 178.522C285.22 184.289 298.413 183.735 298.413 183.735L294.215 195.262C294.215 195.262 272.262 197.361 267.596 189.643C260.957 178.647 261.277 159.035 261.277 159.035" fill="#FFCBBB"/>
<path d="M289.34 183.977C289.34 183.977 305.692 183.337 306.058 184.07C306.425 184.804 303.273 184.859 303.695 185.413C304.108 185.959 311.363 185.639 311.543 186.474C311.777 187.606 305.208 187.731 305.208 187.731C305.208 187.731 312.409 187.957 312.331 188.995C312.276 189.729 306.768 189.814 304.67 190.111C306.987 190.08 310.747 190.478 310.669 191.243C310.599 192 306.846 192.132 303.983 192.39C305.785 192.398 309.07 192.585 309.031 193.295C308.992 193.997 296.033 195.004 287.444 195.582" fill="#FFCBBB"/>
<path d="M246.852 126.96C272.746 131.517 279.01 158.496 279.01 158.496L260.583 164.521L250.324 138.26" fill="#FFB548"/>
<path d="M248.053 126.96C248.053 126.96 262.728 132.142 266.371 149.053C270.015 165.965 270.202 187.224 268.337 205.782C238.262 209.481 200.581 206.773 200.581 206.773C200.581 206.773 198.38 159.839 208.64 145.409C218.899 130.979 229.556 127.615 229.556 127.615L239.253 131.283L248.053 126.96Z" fill="#FFB548"/>
<path d="M228.448 194.169H262.182V196.058H226.56C226.56 195.012 227.403 194.169 228.448 194.169Z" fill="#91A9D8"/>
<path d="M303.297 196.058H255.902L264.967 166.925C265.435 165.434 266.816 164.412 268.377 164.412H311.231C312.183 164.412 312.861 165.333 312.58 166.246L303.297 196.058Z" fill="#91A9D8"/>
<path d="M305.426 196.058H258.032L267.097 166.925C267.565 165.434 268.946 164.412 270.507 164.412H313.361C314.312 164.412 314.991 165.333 314.71 166.246L305.426 196.058Z" fill="#C7D2EF"/>
<path d="M288.897 183.031C290.641 182.563 291.777 181.147 291.434 179.869C291.091 178.591 289.4 177.934 287.656 178.402C285.912 178.87 284.776 180.286 285.119 181.564C285.462 182.842 287.153 183.499 288.897 183.031Z" fill="#91A9D8"/>
<path d="M219.624 161.68C219.624 161.68 213.453 175.962 214.475 178.483C215.497 181.003 241.914 182.798 241.914 182.798L241.079 195.824C241.079 195.824 211.511 196.058 198.716 196.058C182.473 196.058 197.53 156.803 197.53 156.803" fill="#FFCBBB"/>
<path d="M233.636 182.151C233.636 182.151 253.257 183.212 253.616 184.133C253.975 185.054 250.199 184.765 250.636 185.467C251.073 186.17 259.787 186.599 259.896 187.614C260.052 188.995 252.181 188.402 252.181 188.402C252.181 188.402 260.77 189.479 260.559 190.712C260.411 191.586 253.819 191.063 251.276 191.188C254.045 191.414 258.5 192.304 258.328 193.209C258.157 194.107 253.663 193.849 250.207 193.833C252.36 194.044 256.261 194.637 256.144 195.48C256.019 196.323 240.408 196.073 230.079 195.792" fill="#FFCBBB"/>
<path d="M230.071 128.115C201.891 126.398 194.956 159.503 194.956 159.503L220.521 164.529L224.758 147.297" fill="#FFB548"/>
<path d="M231.155 125.539C234.354 128.739 239.253 131.283 239.253 131.283C239.222 131.369 237.646 134.436 235.969 137.331C235.969 137.331 229.532 132.235 227.2 128.06C227.2 128.06 230.219 125.945 231.155 125.539Z" fill="white"/>
<path d="M239.253 131.283L243.115 136.816C243.115 136.816 246.665 134.826 249.31 127.365C249.31 127.365 247.874 125.43 246.384 124.603C244.629 126.928 239.253 131.283 239.253 131.283Z" fill="white"/>
<path d="M219.773 164.373L224.735 151.324" stroke="#E2690E" stroke-miterlimit="10"/>
<path d="M268.759 161.774C267.394 152.323 263.61 144.012 263.61 144.012" stroke="#E2690E" stroke-miterlimit="10"/>
<path d="M364.734 201.802V322.61" stroke="#114093" stroke-miterlimit="10"/>
<path d="M170.24 201.802V322.61" stroke="#114093" stroke-miterlimit="10"/>
<g opacity="0.55">
<path opacity="0.55" d="M316.84 183.712C316.84 183.712 317.308 183.626 317.496 183.36C317.886 182.814 317.238 182.237 316.817 181.963C316.271 181.62 315.53 181.495 315.264 180.832C314.968 180.075 315.483 179.248 316.099 178.834C316.622 178.491 317.238 178.311 317.823 178.093C318.479 177.851 319.142 177.453 319.524 176.836C320 176.071 319.906 175.088 319.969 174.222C320.211 170.843 323.667 169.172 326.577 169.102C328.028 169.071 330.251 169.586 331.219 170.718C331.539 171.1 331.788 171.545 331.882 172.037C332.022 172.801 331.734 173.504 331.234 174.073C330.735 174.643 330.048 174.979 329.502 175.494C328.941 176.024 329.338 176.586 329.214 177.219C329.073 177.921 328.597 178.225 327.989 178.561C326.702 179.279 325.18 179.458 323.776 179.849C323.339 179.973 322.894 180.122 322.543 180.403C322.083 180.769 321.826 181.323 321.474 181.8C320.843 182.666 319.883 183.282 318.83 183.493" fill="url(#paint0_linear_988_50)"/>
</g>
<path d="M324.923 192.21H322.169V190.891H324.923C325.812 190.891 326.538 190.166 326.538 189.276V187.005C326.538 186.115 325.812 185.397 324.923 185.397H322.169V184.078H324.923C326.538 184.078 327.848 185.389 327.848 187.005V189.276C327.856 190.899 326.538 192.21 324.923 192.21Z" fill="#E8EAEF"/>
<path d="M319.462 195.675H317.886C315.249 195.675 313.111 193.537 313.111 190.899V182.229H324.236V190.899C324.236 193.529 322.099 195.675 319.462 195.675Z" fill="#E8EAEF"/>
<path d="M311.309 193.794C311.309 193.794 311.418 196.409 315.483 196.409H321.865C325.929 196.409 326.038 193.794 326.038 193.794H311.309Z" fill="#CFDAE5"/>
<path d="M371.327 196.058H161.604V203.027H371.327V196.058Z" fill="#F0F6FF"/>
<path d="M332.935 196.034L330.641 196.05L320.491 165.707C320.257 165.13 320.671 164.505 321.295 164.498C321.895 164.49 322.442 164.857 322.668 165.411L332.935 196.034Z" fill="#7D97D3"/>
<path d="M369.446 194.169H331.772V196.058H371.334C371.334 195.012 370.484 194.169 369.446 194.169Z" fill="#7D97D3"/>
<path d="M131.529 89.6167L132.426 98.5916C132.426 98.5916 131.708 101.128 126.746 101.682C120.731 102.345 118.125 97.7643 118.125 97.7643L119.343 89.4294" fill="#F49C84"/>
<path d="M134.891 78.5113C134.891 78.5113 138.433 89.7572 133.409 92.7149C128.853 95.3996 121.23 91.2165 120.786 89.7962C120.341 88.3758 118.32 76.2637 121.223 75.3585C126.372 73.7508 133.378 73.6806 134.891 78.5113Z" fill="#F49C84"/>
<path d="M131.856 93.8544C131.856 93.8544 127.081 95.0953 123.524 91.9502" stroke="#C45F47" stroke-width="0.75" stroke-miterlimit="10"/>
<path d="M138.168 72.1041C137.575 71.0896 136.561 70.3091 135.398 70.075C134.29 69.8565 133.05 70.0594 132.09 69.4585C131.841 69.3024 131.63 69.0995 131.38 68.9356C130.585 68.4127 129.547 68.3581 128.634 68.6156C127.721 68.8732 126.902 69.4039 126.153 69.9892C125.607 70.4184 125.061 70.8866 124.398 71.113C123.189 71.5266 121.862 71.0349 120.591 71.1676C119.14 71.3159 117.821 72.3538 117.33 73.7274C116.83 75.1321 117.142 76.771 116.417 78.0743C116.042 78.7532 115.411 79.2839 115.145 80.0097C114.786 80.9774 115.161 82.0622 115.66 82.9753C116.12 83.8104 116.674 84.5986 116.94 85.5273C117.135 86.214 117.236 86.9164 117.47 87.5954C117.915 88.9143 118.726 90.1005 120.224 90.2332C120.755 90.28 121.34 90.3112 121.777 89.9991C122.206 89.6869 122.354 89.125 122.416 88.6021C122.518 87.7515 122.463 86.8774 122.253 86.0423C122.767 86.3233 123.251 86.7915 123.828 86.7057C124.016 86.6745 124.148 86.5262 124.281 86.3935C125.529 85.1449 124.109 83.1314 123.969 81.8359C123.805 80.4077 125.147 79.003 126.575 79.1044C127.199 79.1435 127.799 79.4244 128.424 79.3698C129.641 79.2683 130.452 77.9962 131.638 77.6919C132.73 77.4109 133.885 77.7231 134.985 77.7465C136.888 77.7855 138.613 76.0686 138.691 74.1644C138.73 73.4308 138.527 72.7284 138.168 72.1041Z" fill="#173789"/>
<path d="M122.963 85.8473C122.533 84.7937 121.784 83.5138 120.614 84.2318C120.201 84.4894 119.967 85.0278 119.811 85.5507C119.272 87.2989 120.528 89.9913 122.237 89.7416C123.072 89.6167 123.532 88.6256 123.875 87.8139" fill="#F49C84"/>
<path d="M131.544 82.9988C131.544 82.9988 133.128 85.8629 132.863 86.456C132.504 87.2521 131.092 86.8775 131.092 86.8775" stroke="#C45F47" stroke-width="0.75" stroke-miterlimit="10"/>
<path d="M130.288 88.8753L134.08 88.4226C134.08 88.4226 134.36 91.1072 132.66 91.5131C130.561 92.0047 130.288 88.8753 130.288 88.8753Z" fill="white"/>
<path d="M133.9 82.3901C133.94 82.6242 133.994 82.8583 134.064 83.0846C134.174 83.467 134.767 83.3032 134.657 82.9207C134.595 82.6944 134.509 82.4681 134.423 82.2496C134.283 81.9296 133.838 82.0389 133.9 82.3901Z" fill="#00276F"/>
<path d="M133.167 81.0399C133.167 81.0399 133.963 79.9395 135.141 80.7824" stroke="#00276F" stroke-width="0.5" stroke-miterlimit="10" stroke-linecap="round" stroke-linejoin="round"/>
<path d="M127.62 83.7636C127.651 84.0211 127.69 84.2865 127.753 84.5362C127.838 84.9186 128.431 84.7625 128.345 84.3723C128.291 84.1382 128.228 83.9119 128.15 83.6934C128.057 83.428 127.581 83.4436 127.62 83.7636Z" fill="#00276F"/>
<path d="M128.424 81.6251C128.424 81.6251 127.129 81.1958 125.81 82.7411" stroke="#00276F" stroke-width="0.5" stroke-miterlimit="10" stroke-linecap="round" stroke-linejoin="round"/>
<path d="M136.811 284.674L140.025 310.529L139.799 319.013L173.041 318.841C173.853 318.833 174.508 318.178 174.5 317.366C174.5 316.757 174.118 316.211 173.548 316L159.209 309.406L157.305 282.458" fill="#F49C84"/>
<path d="M175.858 318.482C175.514 317.42 174.89 316.219 174.266 315.953L159.069 309.406C150.69 312.8 139.845 310.209 139.845 310.209L137.911 321.658C137.911 322.04 138.223 322.345 138.597 322.337H175.608C176.349 322.329 175.873 318.521 175.858 318.482Z" fill="#2B88F7"/>
<path d="M162.353 310.061C161.503 311.169 160.777 312.379 160.208 313.659" stroke="#1340BF" stroke-width="0.75" stroke-miterlimit="10"/>
<path d="M164.272 311.2C163.39 312.426 163.039 313.128 162.509 314.26" stroke="#1340BF" stroke-width="0.75" stroke-miterlimit="10"/>
<path d="M165.887 312.043C165.286 312.847 164.701 313.963 164.233 314.853" stroke="#1340BF" stroke-width="0.75" stroke-miterlimit="10"/>
<path d="M138.105 319.863L176.013 319.668" stroke="#1340BF" stroke-width="0.75" stroke-miterlimit="10"/>
<path d="M139.159 314.268C139.159 314.268 148.068 314.447 148.833 319.816" stroke="#1340BF" stroke-width="0.75" stroke-miterlimit="10"/>
<path d="M171.153 314.611C171.153 314.611 168.696 318.099 168.212 319.715" stroke="#1340BF" stroke-width="0.75" stroke-miterlimit="10"/>
<path d="M152.414 173.387C157.914 212.938 162.111 306.362 162.111 306.362H131.88C131.88 306.362 127.121 237.615 122.214 194.754C114.046 178.74 110.761 167.713 112.22 160.994" fill="#223082"/>
<path d="M135.773 306.362C135.773 306.362 131.014 237.615 126.107 194.754" stroke="#0D1735" stroke-width="0.75" stroke-miterlimit="10"/>
<path d="M95.6963 284.674L93.8083 310.529L93.582 319.013L126.825 318.841C127.636 318.833 128.291 318.178 128.284 317.366C128.284 316.757 127.901 316.211 127.332 316L112.992 309.406L116.191 282.458" fill="#F49C84"/>
<path d="M129.649 318.482C129.305 317.42 128.681 316.219 128.057 315.953L112.86 309.406C104.481 312.8 93.6365 310.209 93.6365 310.209L91.7017 321.658C91.7017 322.04 92.0137 322.345 92.3882 322.337H129.399C130.14 322.329 129.656 318.521 129.649 318.482Z" fill="#2B88F7"/>
<path d="M116.144 310.061C115.294 311.169 114.568 312.379 113.999 313.659" stroke="#1340BF" stroke-width="0.75" stroke-miterlimit="10"/>
<path d="M118.063 311.2C117.181 312.426 116.83 313.128 116.3 314.26" stroke="#1340BF" stroke-width="0.75" stroke-miterlimit="10"/>
<path d="M119.678 312.043C119.078 312.847 118.493 313.963 118.024 314.853" stroke="#1340BF" stroke-width="0.75" stroke-miterlimit="10"/>
<path d="M91.8887 319.863L129.804 319.668" stroke="#1340BF" stroke-width="0.75" stroke-miterlimit="10"/>
<path d="M92.9424 314.268C92.9424 314.268 101.852 314.447 102.616 319.816" stroke="#1340BF" stroke-width="0.75" stroke-miterlimit="10"/>
<path d="M124.944 314.611C124.944 314.611 122.487 318.099 122.003 319.715" stroke="#1340BF" stroke-width="0.75" stroke-miterlimit="10"/>
<path d="M94.0034 169.727C91.5225 176.508 90.9373 188.488 93.6367 199.968C93.8161 200.74 93.902 201.529 93.8629 202.317C91.5069 249.805 89.0806 306.362 89.0806 306.362H118.945C118.945 306.362 130.211 188.394 132.426 168.86" fill="#223082"/>
<path d="M98.6845 169.727C96.2036 176.508 95.6185 188.488 98.3178 199.968C98.4973 200.74 98.5831 201.529 98.5441 202.317C96.188 249.805 93.7617 306.362 93.7617 306.362" stroke="#0D1735" stroke-width="0.75" stroke-miterlimit="10"/>
<path d="M126.029 232.901C126.029 232.901 130.585 186.607 131.989 175.611" stroke="#0D1735" stroke-width="0.75" stroke-miterlimit="10"/>
<path d="M96.8354 190.79C96.8354 190.79 105.23 189.081 109.591 180.512" stroke="#0D1735" stroke-width="0.75" stroke-miterlimit="10"/>
<path d="M130.491 188.925C130.491 188.925 133.417 188.456 133.729 187.364C134.041 186.271 135.601 176.68 135.601 176.68" stroke="#0D1735" stroke-width="0.75" stroke-miterlimit="10"/>
<path d="M145.096 178.483C145.096 178.483 147.078 187.91 154.185 188.262" stroke="#0D1735" stroke-width="0.75" stroke-miterlimit="10"/>
<path d="M89.3223 300.735H119.483" stroke="#0D1735" stroke-width="0.75" stroke-miterlimit="10"/>
<path d="M131.475 300.735H161.838" stroke="#0D1735" stroke-width="0.75" stroke-miterlimit="10"/>
<path d="M159.747 120.357C159.747 120.357 166.449 130.635 168.93 130.909C172.869 131.338 192.015 116.877 192.015 116.877L201.743 128.044C201.743 128.044 183.394 149.685 168.235 150.645C156.315 151.402 142.038 132.493 142.038 132.493" fill="#F49C84"/>
<path d="M185.968 121.278C185.968 121.278 202.437 108.487 203.264 108.745C204.091 109.002 201.821 111.429 202.539 111.515C203.257 111.601 208.476 106.248 209.233 106.731C210.262 107.387 204.895 112.491 204.895 112.491C204.895 112.491 211.136 107.246 211.862 108.066C212.377 108.651 206.252 114.504 206.252 114.504C206.252 114.504 212.439 109.986 212.962 110.602C213.477 111.211 208.016 116.416 208.016 116.416C208.016 116.416 212.306 112.647 213.001 113.279C213.695 113.911 204.567 125.586 196.641 133.484" fill="#F49C84"/>
<path d="M201.377 112.226C201.377 112.226 200.183 115.207 198.677 117.501" stroke="#C45F47" stroke-width="0.75" stroke-miterlimit="10"/>
<path d="M200.69 118.898C202.445 117.103 204.778 116.791 206.97 116.892" stroke="#C45F47" stroke-width="0.75" stroke-miterlimit="10"/>
<path d="M118.305 96.6326C118.305 96.6326 120.7 99.6606 125.178 100.043C129.656 100.425 132.426 98.0451 132.426 98.0451C132.426 98.0451 146.586 105.186 150.588 134.943C154.59 164.701 154.98 180.27 154.98 180.27H91.6938C91.686 180.27 83.7596 105.771 118.305 96.6326Z" fill="#2B88F7"/>
<path d="M132.426 98.0452C136.436 98.0452 142.279 99.6294 146.086 102.345C154.247 108.159 156.743 114.902 164.342 125.235L146.016 138.174L132.426 98.0452Z" fill="#2B88F7"/>
<path d="M120.825 197.783L93.3867 184.391L111.299 147.36L138.737 160.752L120.825 197.783Z" fill="#FFEFAB"/>
<path d="M132.66 158.965L117.244 151.442L118.266 149.35C118.422 149.03 118.804 148.897 119.124 149.053L133.386 156.015C133.706 156.171 133.838 156.553 133.682 156.873L132.66 158.965Z" fill="#173789"/>
<path d="M127.932 149.085C126.645 148.46 125.139 148.913 124.554 150.107C123.977 151.301 124.546 152.768 125.826 153.4C127.113 154.025 128.619 153.572 129.204 152.378C129.789 151.184 129.219 149.717 127.932 149.085ZM126.38 152.261C125.771 151.964 125.498 151.27 125.779 150.7C126.052 150.138 126.77 149.92 127.378 150.216C127.987 150.513 128.26 151.207 127.979 151.777C127.706 152.347 126.988 152.558 126.38 152.261Z" fill="#173789"/>
<path d="M104.208 135.24C104.208 135.24 98.8246 147.165 98.4735 150.513C98.1224 153.861 119.795 163.936 119.795 163.936L114.139 177.312C114.139 177.312 79.4688 168.806 76.2936 158.379C73.1183 147.961 84.2122 126.351 84.2122 126.351" fill="#F49C84"/>
<path d="M108.733 158.324C108.733 158.324 129.103 167.572 129.181 168.649C129.251 169.726 125.412 168.189 125.639 169.063C125.865 169.937 134.798 173.246 134.579 174.346C134.291 175.829 126.996 172.629 126.996 172.629C126.996 172.629 134.876 176.571 134.252 177.788C133.807 178.647 127.113 175.938 124.429 175.228C127.246 176.375 131.583 178.771 131.108 179.653C130.632 180.527 126.037 178.787 122.44 177.632C124.617 178.561 128.486 180.465 128.081 181.3C127.675 182.135 111.502 176.742 100.83 173.051" fill="#F49C84"/>
<path d="M118.305 96.6327C109.247 96.4844 100.353 99.2237 95.3058 104.023C87.7305 111.226 80.7637 129.231 80.7637 129.231L104.949 138.596L115.481 118.094" fill="#2B88F7"/>
<path d="M103.264 138.174L111.416 124.049" stroke="#273B7A" stroke-width="0.75" stroke-miterlimit="10"/>
<path d="M105.565 134.186L82.2773 124.767" stroke="#273B7A" stroke-width="0.75" stroke-miterlimit="10"/>
<path d="M150.682 134.74C149.636 126.406 147.358 115.729 147.358 115.729" stroke="#273B7A" stroke-width="0.75" stroke-miterlimit="10"/>
<path d="M150.104 130.643L162.103 122.332" stroke="#273B7A" stroke-width="0.75" stroke-miterlimit="10"/>
<path d="M461.911 229.639C459.672 228.921 457.105 228.687 454.944 229.584C453.751 230.084 452.76 230.896 451.722 231.614C449.834 232.917 447.33 233.994 445.114 233.19C443.086 232.449 442.079 230.201 442.618 228.32C443.156 226.439 444.966 224.972 447.018 224.285C449.077 223.599 451.348 223.614 453.524 223.895" fill="#86ADA8"/>
<path d="M473.496 249.345C462.137 249.493 461.809 234.134 457.113 228.11C454.96 225.347 452.104 223.661 448.414 223.888C450.021 222.818 463.417 221.71 466.303 223.209C469.533 224.886 471.21 226.939 472.724 229.912C474.44 233.307 480.72 245.911 473.496 249.345Z" fill="#BCDDCB"/>
<path d="M451.761 223.435C474.05 222.748 473.395 254.667 476.5 269.62C476.555 269.87 476.913 269.76 476.882 269.519C476.063 263.775 475.259 258.015 474.292 252.295C473.379 246.902 472.295 241.416 470.157 236.359C466.873 228.57 460.663 222.615 451.761 223.193C451.605 223.193 451.597 223.435 451.761 223.435Z" fill="#8EBCA1"/>
<path d="M478.614 237.365C474.394 235.765 472.038 231.177 471.25 226.728C469.83 218.69 468.776 210.558 466.6 202.676C464.267 194.24 460.171 187.028 455.74 179.56C453.782 176.259 451.8 171.756 454.437 168.97C455.483 167.869 457.035 167.385 458.549 167.261C463.838 166.816 468.854 170.25 471.803 174.667C474.752 179.084 476.04 184.375 477.272 189.541C478.107 193.038 478.942 196.542 479.777 200.038C482.71 212.298 485.839 229.787 478.614 237.365Z" fill="#D6E8DD"/>
<path d="M504.422 211.713C507.168 210.004 510.577 209.59 513.784 210.02C516.99 210.441 520.041 211.643 522.997 212.962C524.269 213.524 525.549 214.125 526.937 214.265C528.318 214.406 529.839 214 530.674 212.892C531.649 211.596 531.392 209.668 530.448 208.357C529.504 207.046 527.998 206.242 526.485 205.673C522.67 204.229 518.519 203.956 514.439 203.893" fill="#86ADA8"/>
<path d="M515.726 206.32C520.735 205.774 524.979 208.576 526.844 213.18C526.914 213.344 527.171 213.282 527.117 213.102C525.627 208.107 520.766 205.345 515.695 206.055C515.539 206.078 515.578 206.336 515.726 206.32Z" fill="#8EBCA1"/>
<path d="M455.404 168.205C462.16 172.333 467.7 183.08 471.132 192.343C473.878 199.773 475.813 207.468 476.976 215.303C479.472 232.082 480.611 256.548 479.995 273.499" stroke="#8EBCA1" stroke-width="0.75" stroke-miterlimit="10"/>
<path d="M491.799 233.494C498.157 231.005 498.399 221.64 503.806 214.663C508.268 208.903 514.276 205.563 524.87 204.916C520.259 203.324 515.454 202.122 510.578 202.067C505.702 202.012 500.709 203.16 496.706 205.946C490.957 209.941 481.93 228.422 491.799 233.494Z" fill="#D6E8DD"/>
<path d="M519.05 203.207C511.841 202.652 504.679 205.673 499.569 210.691C491.689 218.432 491.799 230.388 491.065 240.627C490.114 253.926 489.271 267.232 488.553 280.546" stroke="#8EBCA1" stroke-width="0.75" stroke-miterlimit="10"/>
<path d="M488.834 218.94C483.201 216.185 483.748 208.396 484.028 203.55C484.699 191.797 487.328 177.726 494.319 167.713C499.717 159.979 507.722 155.656 517.138 158.66C520.251 159.651 525.322 163.452 523.325 167.323C521.999 169.898 516.296 171.592 513.963 173.683C510.975 176.36 508.588 179.646 506.637 183.134C502.666 190.259 500.505 198.235 498.399 206.063C496.815 211.955 495.333 218.003 488.834 218.94Z" fill="#BCDDCB"/>
<path d="M516.553 232.62C518.629 232.035 522.319 231.77 524.472 232.199C525.447 232.714 527.234 233.807 528.474 235.82C529.902 238.138 530.089 244.701 525.689 243.57C523.856 243.101 523.013 241.057 521.913 239.511C520.54 237.584 518.41 236.218 516.093 235.773C513.776 235.328 511.287 235.804 509.298 237.084" fill="#86ADA8"/>
<path d="M526.516 240.721C526.329 237.014 524.051 234.54 521.25 232.347C519.877 231.27 518.699 230.443 516.92 230.24C514.946 230.014 512.824 230.248 510.897 230.716C510.788 230.74 510.819 230.904 510.921 230.904C514.486 231.028 517.404 230.014 520.524 232.371C523.388 234.533 525.939 236.936 526.188 240.729C526.212 240.932 526.532 240.932 526.516 240.721Z" fill="#8EBCA1"/>
<path d="M525.884 233.065C520.719 232.105 514.018 234.696 510.351 238.544C508.627 240.354 506.965 242.688 504.508 242.906C501.964 243.133 498.758 243.367 498.672 238.044C498.602 234.002 501.044 232.964 503.189 231.551C505.334 230.139 507.925 229.631 510.468 229.436C513.448 229.218 521.351 228.172 525.884 233.065Z" fill="#BCDDCB"/>
<path d="M518.652 229.936C510.359 229.99 503.454 235.375 499.866 242.633C496.854 248.728 495.824 255.752 495.068 262.44C494.272 269.495 493.718 276.737 493.882 283.839C493.89 284.073 494.225 284.073 494.241 283.839C494.958 273.499 494.935 263.143 497.057 252.942C498.204 247.448 499.975 242.095 503.61 237.724C507.418 233.151 512.645 230.349 518.636 230.201C518.824 230.193 518.824 229.936 518.652 229.936Z" fill="#8EBCA1"/>
<path d="M510.476 163.085C504.983 166.074 501.231 171.756 498.399 177.164C495.294 183.072 493.211 189.471 491.713 195.964C488.311 210.745 486.97 226.213 486.361 241.338C486.002 250.32 485.877 259.389 486.517 268.356C486.533 268.527 486.782 268.527 486.782 268.356C486.47 253.169 486.533 238.099 488.031 222.959C489.427 208.896 491.112 194.216 496.823 181.144C499.756 174.44 503.954 166.878 510.53 163.179C510.585 163.148 510.53 163.054 510.476 163.085Z" fill="#8EBCA1"/>
<path d="M510.577 266.428V278.376C510.577 304.832 500.708 321.861 500.708 321.861H470.149C470.149 321.861 460.28 304.832 460.28 278.376V266.428H510.577Z" fill="#F2F5F9"/>
<path d="M20.1299 247.495C18.7646 248.713 17.3682 249.969 16.51 251.584C15.6518 253.2 15.4178 255.284 16.4086 256.821C16.7518 257.36 17.2277 257.804 17.7426 258.195C19.3732 259.435 21.4718 260.114 23.508 259.841C25.5364 259.568 27.4556 258.273 28.2826 256.4C28.7663 255.299 28.8677 254.074 29.1876 252.919C30.1472 249.446 33.4551 246.613 37.0594 246.707" fill="#86ADA8"/>
<path d="M49.8388 259.404C46.9132 261.933 41.7329 261.738 38.5655 259.771C34.1654 257.04 31.8483 252.061 26.9957 249.813C25.1858 248.978 23.1183 248.588 21.2069 249.134C19.2643 249.696 17.6884 251.155 15.9019 252.131C19.5608 243.812 29.3986 240.378 33.276 240.393C40.4925 240.425 47.4983 245.248 50.3927 252.193C51.3835 254.574 51.7424 257.758 49.8388 259.404Z" fill="#BCDDCB"/>
<path d="M83.9395 230.513C86.631 229.538 89.7048 229.226 92.2872 230.443C93.7227 231.122 94.9085 232.222 96.1568 233.198C98.4192 234.969 101.431 236.429 104.083 235.328C106.517 234.322 107.719 231.278 107.079 228.726C106.439 226.174 104.263 224.184 101.797 223.263C99.332 222.334 96.6014 222.35 93.9957 222.732" fill="#86ADA8"/>
<path d="M63.3664 238.208C57.7337 235.453 58.2798 227.665 58.5606 222.818C59.0053 215.077 59.3018 207.202 61.0962 199.632C63.5302 189.393 70.2006 179.505 81.591 177.663C84.9222 177.125 88.4329 176.899 91.6706 177.929C94.9083 178.959 97.8027 181.503 98.224 184.625C98.3254 185.358 98.2786 186.147 97.8651 186.771C97.3736 187.512 96.4608 187.895 95.6182 188.285C87.3485 192.039 81.0292 199.187 78.6731 207.46C77.0036 213.328 77.2611 219.587 75.6773 225.472C74.1014 231.356 69.8651 237.279 63.3664 238.208Z" fill="#BCDDCB"/>
<path d="M70.0526 257.227C79.4067 257.367 79.3052 248.861 81.5911 245.95C85.5933 240.838 86.0224 233.775 89.697 228.437C92.2793 224.691 95.7042 222.405 100.128 222.709C98.2007 221.258 82.1372 219.759 78.6811 221.788C74.8037 224.067 72.7909 226.845 70.9809 230.872C68.9135 235.485 61.385 252.576 70.0526 257.227Z" fill="#D6E8DD"/>
<path d="M96.1175 221.812C74.5461 220.29 70.7389 249.633 68.6091 265.031C67.7041 271.563 66.8849 278.103 66.0267 284.643C65.9955 284.862 66.37 284.916 66.409 284.698C68.8899 270.923 69.3736 256.774 73.4071 243.289C76.6369 232.488 83.4711 221.499 96.1097 222.061C96.2735 222.069 96.2735 221.819 96.1175 221.812Z" fill="#BCDDCB"/>
<path d="M50.8606 235.188C47.2874 234.899 44.4398 231.918 42.9731 228.648C39.5717 221.086 40.2192 212.4 35.4134 205.376C32.9169 201.732 29.5154 198.789 26.8316 195.285C23.0245 190.33 21.1599 183.29 24.0777 177.492C28.4778 168.751 37.8007 172.716 43.4646 177.812C51.2975 184.867 57.765 195.153 59.5593 205.189C60.7296 211.768 62.5552 228.281 50.8606 235.188Z" fill="#D6E8DD"/>
<path d="M30.1395 180.426C35.2729 180.691 39.3766 186.826 41.6156 190.837C44.7441 196.44 46.2498 203.167 47.5214 209.411C50.3924 223.583 51.118 238.263 51.8123 252.685C52.2102 261.035 52.4286 269.386 52.5691 277.744C52.5769 278.025 53.006 278.025 53.006 277.744C53.045 261.831 52.2414 245.895 50.8527 230.045C50.2208 222.842 49.386 215.646 47.9037 208.568C46.5774 202.247 44.9703 195.496 41.6468 189.893C39.3141 185.967 35.2417 180.254 30.1551 180.106C29.921 180.083 29.921 180.411 30.1395 180.426Z" fill="#BCDDCB"/>
<path d="M19.3109 216.559C15.847 216.349 9.9568 217.113 6.71914 218.393C5.36166 219.439 2.91196 221.585 1.6325 224.894C0.353035 228.203 0.984964 232.363 3.5829 234.712C5.59571 236.53 8.44329 237.077 11.1192 236.913C12.4221 236.835 13.7562 236.585 14.8796 235.906C17.7428 234.166 18.4059 230.303 20.0209 227.314C22.2287 223.232 26.699 220.555 31.2474 220.594" fill="#86ADA8"/>
<path d="M8.85682 230.232C9.00505 226.603 9.47315 222.889 11.915 220.024C14.9733 216.442 19.1159 215.521 23.5862 215.155C23.7189 215.147 23.7735 214.936 23.6174 214.905C19.3422 213.937 14.474 216.216 11.6654 219.408C8.99725 222.436 8.52135 226.354 8.42773 230.24C8.42773 230.505 8.84902 230.505 8.85682 230.232Z" fill="#3F6D54"/>
<path d="M6.72705 218.393C13.0619 217.215 19.8025 219.806 24.304 224.527C26.4261 226.752 28.4545 229.616 31.4737 229.889C34.5944 230.17 38.5264 230.459 38.6356 223.919C38.7214 218.955 35.7178 217.675 33.0886 215.943C30.4517 214.21 27.2687 213.578 24.148 213.344C20.4891 213.071 11.6108 213.328 6.72705 218.393Z" fill="#BCDDCB"/>
<path d="M14.1072 214.242C24.5068 214.452 32.9793 221.515 37.1532 230.732C40.6561 238.481 41.8107 247.3 42.6611 255.674C43.4881 263.814 43.5817 271.977 44.1122 280.132C44.1278 280.359 44.4711 280.366 44.4711 280.132C44.6271 272.359 44.0498 264.469 43.3008 256.743C42.7859 251.491 42.0994 246.239 40.9525 241.088C39.4 234.127 36.9113 227.462 32.0119 222.139C27.3231 217.051 21.0663 214.015 14.1072 213.976C13.9356 213.976 13.9356 214.242 14.1072 214.242Z" fill="#8EBCA1"/>
<path d="M28.0642 243.617C32.3083 243.141 36.607 243.57 40.1723 246.106C43.4802 248.463 45.7193 252.108 47.0065 255.9C49.581 263.486 50.2208 271.563 49.1832 279.477C49.1598 279.633 49.425 279.672 49.464 279.516C51.2038 271.384 50.0413 261.59 46.7101 253.949C45.2512 250.594 42.9809 247.487 39.8837 245.474C36.3417 243.172 32.1211 242.867 28.0408 243.468C27.9628 243.484 27.9784 243.632 28.0642 243.617Z" fill="#8EBCA1"/>
<path d="M85.008 182.362C79.5156 185.351 75.7631 191.032 72.9311 196.44C69.8261 202.348 67.743 208.748 66.2451 215.241C62.8436 230.022 61.5018 245.49 60.8932 260.614C60.5344 269.597 60.4095 278.665 61.0493 287.632C61.0649 287.804 61.3145 287.804 61.3145 287.632C61.0025 272.445 61.0649 257.375 62.5628 242.235C63.9593 228.172 65.6444 213.493 71.3552 200.421C74.2886 193.717 78.4858 186.155 85.0626 182.455C85.1172 182.416 85.0626 182.33 85.008 182.362Z" fill="#8EBCA1"/>
<path d="M33.939 276.027V283.551C33.939 313.378 44.3931 321.861 44.3931 321.861H67.4C67.4 321.861 77.8463 313.378 77.8463 283.551V276.027H33.939Z" fill="#F2F5F9"/>
<path d="M23.6875 322.61H517.076" stroke="#91AFE5" stroke-miterlimit="10" stroke-linecap="round" stroke-linejoin="round"/>
<path d="M368.151 97.132L369.22 103.953C369.22 103.953 369.353 108.105 374.034 107.629C378.964 107.129 382.99 102.244 382.99 102.244L378.621 90.0068" fill="#AF5743"/>
<path d="M366.474 80.595C363.517 83.8572 359.398 97.0696 365.007 99.3094C370.141 101.362 377.357 99.3797 379.284 91.6457C381.297 83.5294 374.252 72.0182 366.474 80.595Z" fill="#AF5743"/>
<path d="M368.799 100.301C368.799 100.301 373.144 100.722 376.491 97.374" stroke="#752D21" stroke-width="0.75" stroke-miterlimit="10"/>
<path d="M378.67 90.7806C378.67 90.7806 378.67 90.7706 378.67 90.7806C378.66 90.7706 378.66 90.7806 378.67 90.7806Z" fill="#FF855A"/>
<path d="M378.636 90.7561C378.621 90.7793 378.605 90.8026 378.59 90.8258C378.559 90.8646 378.628 90.9034 378.659 90.8646C378.675 90.8414 378.69 90.8181 378.706 90.7948C378.729 90.756 378.659 90.7173 378.636 90.7561Z" fill="#FF855A"/>
<path d="M366.934 88.5789C366.934 88.5789 365.093 91.1542 365.28 91.7552C365.53 92.559 366.934 92.3561 366.934 92.3561" stroke="#752D21" stroke-width="0.75" stroke-miterlimit="10"/>
<path d="M370.157 89.4059C370.094 89.6868 370.219 89.96 370.43 90.0068C370.648 90.0536 370.867 89.8663 370.929 89.5776C370.992 89.2966 370.867 89.0235 370.656 88.9767C370.445 88.9298 370.227 89.1249 370.157 89.4059Z" fill="#4A1A1A"/>
<path d="M364.212 87.4003C364.149 87.6812 364.274 87.9544 364.485 88.0012C364.703 88.048 364.922 87.8607 364.984 87.572C365.047 87.291 364.922 87.0179 364.711 86.9711C364.501 86.9242 364.274 87.1193 364.212 87.4003Z" fill="#4A1A1A"/>
<path d="M367.629 94.4708L364.024 93.4641C364.024 93.4641 363.58 96.0317 365.195 96.539C367.184 97.1555 367.629 94.4708 367.629 94.4708Z" fill="white"/>
<path d="M376.788 93.0115C372.614 88.8363 374.12 85.2463 374.12 85.2463C374.12 85.2463 364.688 84.9576 361.271 81.5394C361.271 81.5394 363.751 73.9615 370.375 76.8022C374.143 74.8512 380.119 76.7554 382.545 80.7121C386.337 86.8774 382.506 93.7763 380.244 95.0406" fill="#011E3B"/>
<path d="M379.238 79.8927C378.614 78.8001 379.183 77.0676 379.753 76.2872C380.806 74.8356 382.967 74.3283 384.574 75.1244C386.181 75.9204 387.086 77.9104 386.665 79.6586C386.251 81.4067 384.582 82.7646 382.787 82.8583C382.077 82.8973 381.274 82.6866 380.938 82.0701" fill="#011E3B"/>
<path d="M374.962 90.8262C374.954 90.5609 375.266 89.7961 376.062 89.5073C377.466 89.0001 378.325 90.8419 378.161 92.309C378.059 93.2299 377.755 93.9479 377.162 94.6581C376.382 95.5946 375.352 95.7975 374.791 94.6425" fill="#AF5743"/>
<path d="M370.141 86.9633C372.388 86.815 372.809 89.0626 372.809 89.0626" stroke="#4A1A1A" stroke-width="0.5" stroke-miterlimit="10" stroke-linecap="round"/>
<path d="M364.149 85.6131C365.382 85.0512 366.622 85.9721 366.622 85.9721" stroke="#4A1A1A" stroke-width="0.5" stroke-miterlimit="10" stroke-linecap="round"/>
<path d="M380.673 205.485L370.757 310.514L363.104 319.13C363.104 319.13 389.332 318.029 390.191 317.155C391.057 316.273 389.855 310.295 389.855 310.295L407.487 204.439L380.673 205.485Z" fill="#AF5743"/>
<path d="M385.939 317.1L390.682 313.175L390.113 311.122L383.24 317.116L380.298 317.139L368.354 312.059L355.567 319.145C354.272 319.964 354.857 321.97 356.394 321.962L374.634 321.853L379.448 318.474L380.821 318.466L380.844 321.806L390.69 321.736L390.659 317.069L385.939 317.1Z" fill="#011E3B"/>
<path d="M411.138 205.485L415.835 310.514L408.181 319.13C408.181 319.13 434.41 318.029 435.268 317.155C436.134 316.273 434.933 310.295 434.933 310.295L437.952 204.439L411.138 205.485Z" fill="#AF5743"/>
<path d="M431.024 317.1L435.768 313.175L435.198 311.122L428.325 317.116L425.384 317.139L413.44 312.059L400.653 319.145C399.358 319.964 399.943 321.97 401.48 321.962L419.72 321.853L424.533 318.474L425.906 318.466L425.93 321.806L435.775 321.736L435.744 317.069L431.024 317.1Z" fill="#011E3B"/>
<path d="M421.756 152.815C425.29 155.281 428.832 158.488 432.242 163.928C443.218 181.409 440.262 223.786 440.262 223.786H372.489C372.489 223.786 379.105 169.719 383.318 157.638" fill="#223082"/>
<path d="M408.181 146.493C408.181 146.493 420.945 155.968 428.606 167.853C437.546 181.729 436.852 223.794 436.852 223.794" stroke="#121E3A" stroke-width="0.75" stroke-miterlimit="10"/>
<path d="M406.559 159.893C415.328 167.65 422.528 159.893 422.528 159.893" stroke="#121E3A" stroke-width="0.75" stroke-miterlimit="10"/>
<path d="M361.278 134.85C361.278 134.85 345.472 154.508 336.562 152.191C327.653 149.873 314.203 120.279 314.203 120.279L324.626 115.722C324.626 115.722 336.414 131.151 338.123 131.229C339.831 131.307 351.081 118.867 351.081 118.867" fill="#AF5743"/>
<path d="M327.388 119.257C327.388 119.257 318.463 106.208 317.792 106.208C317.113 106.208 318.237 108.542 317.683 108.44C317.129 108.339 314.5 103.133 313.821 103.313C312.908 103.555 315.42 108.19 315.42 108.19C315.42 108.19 314.703 107.309 313.969 107.746C313.447 108.058 313.876 109.463 313.876 109.463C313.876 109.463 313.103 108.924 312.573 109.267C312.042 109.603 312.456 110.813 312.456 110.813C312.456 110.813 311.738 109.806 311.129 110.547C310.56 111.25 312.908 118.219 316.949 125.953" fill="#AF5743"/>
<path d="M318.252 109.595C318.252 109.595 318.447 112.093 319.025 114.153" stroke="#752D21" stroke-width="0.75" stroke-miterlimit="10"/>
<path d="M311.239 112.108C311.621 112.686 312.011 113.255 312.44 113.802C312.651 114.075 312.869 114.34 313.111 114.582C313.228 114.699 313.353 114.816 313.478 114.902C313.61 115.019 313.743 115.011 313.743 115.004C313.774 114.972 313.79 114.785 313.766 114.637C313.743 114.481 313.704 114.317 313.665 114.153C313.571 113.825 313.462 113.505 313.337 113.185C313.096 112.545 312.807 111.913 312.526 111.297L312.979 111.078C313.337 111.765 313.72 112.444 314.133 113.092C314.344 113.412 314.562 113.732 314.796 114.012C314.913 114.145 315.046 114.286 315.155 114.348C315.218 114.387 315.233 114.364 315.163 114.379C315.093 114.434 315.132 114.418 315.132 114.34C315.163 114.059 315.077 113.653 314.999 113.287C314.913 112.912 314.812 112.545 314.703 112.171C314.484 111.429 314.227 110.688 313.962 109.97L314.445 109.767C314.757 110.493 315.116 111.211 315.483 111.913C315.67 112.264 315.865 112.608 316.084 112.92C316.193 113.076 316.318 113.224 316.442 113.333C316.505 113.38 316.567 113.412 316.575 113.404C316.559 113.412 316.583 113.419 316.606 113.333C316.669 113.014 316.591 112.592 316.528 112.217C316.458 111.827 316.372 111.437 316.279 111.055C316.084 110.282 315.857 109.509 315.631 108.745C315.951 109.486 316.224 110.235 316.481 111C316.606 111.382 316.731 111.765 316.825 112.163C316.903 112.569 317.02 112.943 316.957 113.427C316.942 113.536 316.848 113.755 316.63 113.778C316.435 113.794 316.318 113.708 316.216 113.646C316.029 113.497 315.896 113.341 315.764 113.177C315.506 112.85 315.288 112.498 315.085 112.155C314.671 111.453 314.32 110.727 313.977 109.993L314.461 109.79C314.75 110.524 315.015 111.265 315.249 112.022C315.366 112.397 315.475 112.779 315.569 113.17C315.654 113.568 315.756 113.942 315.701 114.442C315.678 114.559 315.662 114.754 315.405 114.902C315.155 115.004 314.96 114.902 314.859 114.84C314.632 114.699 314.5 114.535 314.367 114.379C314.102 114.059 313.884 113.724 313.673 113.388C313.252 112.709 312.885 112.022 312.526 111.312L312.979 111.094C313.267 111.734 313.509 112.389 313.727 113.053C313.837 113.388 313.938 113.724 314.016 114.075C314.055 114.247 314.086 114.426 314.102 114.613C314.102 114.801 314.164 114.996 313.969 115.246C313.852 115.363 313.665 115.347 313.571 115.316C313.462 115.277 313.376 115.222 313.298 115.16C313.142 115.043 313.025 114.91 312.908 114.777C312.674 114.504 312.479 114.223 312.284 113.927C311.902 113.326 311.551 112.725 311.239 112.108Z" fill="#752D21"/>
<path d="M369.337 102.845C358.673 102.845 345.511 122.792 345.511 122.792L361.77 138.003L384.496 113.997" fill="#B9B5B2"/>
<path d="M384.449 100.745C384.449 100.745 393.842 100.316 399.872 104.507C411.083 112.295 421.756 152.815 421.756 152.815C410.506 164.521 382.475 169.008 382.475 169.008C382.475 169.008 373.753 153.205 367.199 146.649C360.646 140.094 358.797 133.796 361.496 120.365L384.449 100.745Z" fill="#B9B5B2"/>
<path d="M381.391 97.7876L374.026 106.325L378.582 111.234C378.582 111.234 381.812 105.724 384.441 100.753L381.391 97.7876Z" fill="white"/>
<path d="M374.026 106.325L369.719 111.172C369.719 111.172 367.394 107.153 366.934 103.149L368.892 101.877L374.026 106.325Z" fill="white"/>
<path d="M360.795 136.746C359.421 130.893 361.778 120.716 361.778 120.716" stroke="#846A6A" stroke-width="0.75" stroke-miterlimit="10"/>
<path d="M400.98 136.137C391.611 171.514 378.465 193.732 378.465 193.732L367.051 188.714C378.613 152.37 381.749 131.377 381.749 131.377" fill="#AF5743"/>
<path d="M382.865 115.714L379.003 133.843L402.034 137.964C402.034 137.964 404.398 129.761 405.404 122.363" fill="#B9B5B2"/>
<path d="M401.714 137.995L404.725 125.937" stroke="#846A6A" stroke-width="0.75" stroke-miterlimit="10"/>
<path d="M379.011 133.843L381.477 121.528" stroke="#846A6A" stroke-width="0.75" stroke-miterlimit="10"/>
<path d="M384.504 181.948C384.504 181.948 378.863 195.847 376.491 195.847C374.12 195.847 353.305 195.98 347.29 195.98C347.407 194.903 352.384 192.749 356.605 191.453C359.125 190.681 367.059 188.714 367.059 188.714L371.483 174.206" fill="#AF5743"/>
<defs>
<linearGradient id="paint0_linear_988_50" x1="323.544" y1="183.709" x2="323.544" y2="169.101" gradientUnits="userSpaceOnUse">
<stop stop-color="white" stop-opacity="0.1"/>
<stop offset="1" stop-color="white" stop-opacity="0.4"/>
</linearGradient>
</defs>
</svg>
