<svg width="189" height="43" viewBox="0 0 189 43" fill="none" xmlns="http://www.w3.org/2000/svg">
<path d="M26.0231 12.0017L26.0128 8.06158L5.30327 10.8612C2.65652 11.2071 0.755715 13.7988 1.08245 16.6182C1.40713 19.4375 3.84016 21.4623 6.48691 21.1142L26.3252 18.5116" fill="url(#paint0_linear_412_644)"/>
<path d="M13.7413 9.8323L13.7516 4.01409L34.8228 1.04151C37.4696 0.691279 39.9047 2.71167 40.2314 5.53103C40.5602 8.35038 38.6635 10.9443 36.0168 11.2923L25.8983 12.586L25.8695 8.0111L13.7413 9.8323Z" fill="url(#paint1_linear_412_644)"/>
<path d="M13.737 9.00283L13.7472 3.8829L34.8246 1.03946C37.4714 0.689234 39.9065 2.70963 40.2332 5.52898C40.562 8.34834 38.6653 10.9422 36.0186 11.2903L8.29346 14.9305L8.29757 21.3638" stroke="#E3CAFD" stroke-width="0.7" stroke-miterlimit="10" stroke-linecap="round" stroke-linejoin="round"/>
<path d="M26.0231 12.0017L26.0128 8.06158L5.30327 10.8612C2.65652 11.2071 0.755715 13.7988 1.08245 16.6182C1.40713 19.4375 3.84016 21.4623 6.48691 21.1142L26.3252 18.5116" stroke="#FFC6B9" stroke-width="0.7" stroke-miterlimit="10" stroke-linecap="round" stroke-linejoin="round"/>
<path d="M40.2065 5.47643C40.5353 8.29578 38.6386 10.8897 35.9918 11.2377L8.29342 14.9305L8.27698 36.8067L35.9877 33.0702C38.6344 32.72 40.5311 30.1283 40.2024 27.3089L40.2476 27.4206L40.2332 5.54428" fill="url(#paint2_linear_412_644)"/>
<path d="M40.2065 5.47643C40.5353 8.29578 38.6386 10.8897 35.9918 11.2377L8.29342 14.9305L8.27698 36.8067L35.9877 33.0702C38.6344 32.72 40.5311 30.1283 40.2024 27.3089L40.2476 27.4206L40.2332 5.54428" stroke="#E3CAFD" stroke-width="0.75" stroke-miterlimit="10" stroke-linecap="round" stroke-linejoin="round"/>
<path d="M40.8452 24.1722C40.354 26.834 38.9094 29.6577 35.8229 30.0079L11.7022 33.0221L11.7083 20.6896C11.7515 20.6962 11.7946 20.7071 11.8378 20.7137C13.5639 20.926 15.1277 19.6083 15.3271 17.7674C15.3394 17.6514 15.3456 17.5353 15.3456 17.4193L33.7516 14.9655C37.4669 14.4752 40.1403 12.9933 40.8493 10.9401L40.8308 7.84052C40.3294 10.9751 37.9806 12.8554 33.5728 13.4376L10.8966 16.4606C10.535 16.5087 10.2637 16.8371 10.2637 17.2245L10.2555 33.8867C10.2555 34.1078 10.3439 34.3158 10.498 34.4624C10.6315 34.5894 10.8021 34.6572 10.9788 34.6572C11.0076 34.6572 11.0343 34.6551 11.0631 34.6529L35.9853 31.5402C38.1594 31.2928 40.5225 29.2112 40.8513 27.6067L40.8452 24.1722Z" fill="#E3CAFD"/>
<path d="M1.08268 15.9352C1.40736 18.7545 3.8404 20.7793 6.48715 20.4313L34.5575 16.6816L34.539 38.5141L6.46865 42.2528C3.8219 42.5987 1.38887 40.5761 1.06419 37.7567H1.07446L1.06213 15.8498L1.07035 16.0096" fill="url(#paint3_linear_412_644)"/>
<path d="M1.08268 15.9352C1.40736 18.7545 3.8404 20.7793 6.48715 20.4313L34.5575 16.6816L34.539 38.5141L6.46865 42.2528C3.8219 42.5987 1.38887 40.5761 1.06419 37.7567H1.07446L1.06213 15.8498L1.07035 16.0096" stroke="#FFC6B9" stroke-width="0.7" stroke-miterlimit="10" stroke-linecap="round" stroke-linejoin="round"/>
<path d="M32.5438 18.9603C32.3876 18.8137 32.1821 18.7458 31.9766 18.7721L8.18466 21.9176C5.70642 22.1255 3.2816 21.436 1.84726 20.1205C1.15886 19.4879 0.692392 18.7436 0.46224 17.8987L0.470459 20.6677C0.5917 20.8822 0.706776 21.1055 0.901995 21.285C2.64663 22.8873 5.41667 23.6972 8.31412 23.4499C8.3244 23.4499 8.33467 23.4477 8.34495 23.4455L28.175 20.8231C28.2243 22.629 29.6114 24.0803 31.3191 24.0803C31.3252 24.0803 31.3293 24.0803 31.3355 24.0803L31.3273 32.4376C29.6689 32.534 28.3517 33.9918 28.3517 35.7823C28.3517 35.9181 28.362 36.0494 28.3764 36.1807L8.17233 38.8447C4.99541 39.057 1.33969 37.7546 0.470459 33.5431L0.45813 36.4609C1.4671 38.9541 4.45086 40.4076 7.47571 40.4076C7.7408 40.4076 8.01205 40.3988 8.28741 40.3791C8.30179 40.3791 8.31618 40.3769 8.32851 40.3747L32.1349 37.238C32.4965 37.1898 32.7678 36.8637 32.7698 36.4741L32.7863 19.536C32.7883 19.3171 32.7 19.107 32.5438 18.9603Z" fill="#FFC6B9"/>
<path d="M10.6526 36.0385V34.6419C10.0525 34.7164 9.41754 34.6967 8.87915 34.5806L9.14218 33.2563C9.68263 33.3351 10.3772 33.3723 11.0841 33.2432C12.091 33.0571 12.2348 32.7791 12.2348 31.9824C12.2348 31.1856 12.1753 31.0586 10.9526 30.9711C9.14218 30.8332 8.92641 30.4107 8.92641 28.8018C8.92641 27.3462 9.42987 26.5625 10.9402 26.1904V24.7698L12.1506 24.5794V25.9956C12.5945 25.9496 13.1329 25.9365 13.5644 25.9803L13.4082 27.3265C12.8328 27.2958 12.0417 27.3396 11.454 27.4381C10.6279 27.576 10.3875 27.7555 10.3875 28.5939C10.3875 29.4082 10.4347 29.4235 11.5752 29.557C13.626 29.8066 13.698 30.2093 13.698 31.7044C13.698 33.1513 13.2911 33.9699 11.8526 34.4033V35.8064L10.6526 36.0385Z" fill="white"/>
<path opacity="0.7" d="M20.5961 33.3359L20.5324 32.4745C20.1657 32.5515 19.7731 32.5722 19.4357 32.5285L19.5375 31.698C19.8745 31.7186 20.3046 31.7056 20.7348 31.5893C21.3474 31.4224 21.4234 31.2435 21.3871 30.752C21.3507 30.2605 21.3082 30.1853 20.5499 30.1946C19.4269 30.2033 19.2745 29.9538 19.2011 28.9614C19.1347 28.0635 19.4095 27.554 20.3242 27.2463L20.2593 26.3699L20.9972 26.1898L21.0619 27.0634C21.3336 27.0121 21.6651 26.9761 21.9333 26.9807L21.8984 27.8192C21.5421 27.8301 21.056 27.8981 20.698 27.9893C20.1947 28.1171 20.0546 28.2403 20.0929 28.7575C20.13 29.2598 20.1599 29.2668 20.8695 29.2901C22.1459 29.3378 22.2087 29.5825 22.2769 30.5047C22.3429 31.3973 22.1293 31.9233 21.2618 32.2652L21.3258 33.1307L20.5961 33.3359Z" fill="white"/>
<path opacity="0.4" d="M27.3301 30.479L27.319 30.0887C27.152 30.1148 26.9744 30.115 26.8231 30.0875L26.8861 29.715C27.0377 29.7321 27.232 29.7363 27.4285 29.6939C27.7083 29.6328 27.7463 29.5538 27.74 29.3312C27.7337 29.1085 27.716 29.0735 27.3738 29.06C26.8669 29.0378 26.8033 28.9216 26.7905 28.472C26.779 28.0652 26.9135 27.8416 27.3325 27.7241L27.3212 27.327L27.6578 27.2629L27.669 27.6587C27.7927 27.6419 27.943 27.6334 28.0639 27.6418L28.0309 28.0194C27.8699 28.016 27.6493 28.0353 27.4859 28.0681C27.2562 28.1141 27.1904 28.1664 27.1971 28.4007C27.2035 28.6283 27.2168 28.6322 27.5365 28.6592C28.1114 28.7106 28.1347 28.8225 28.1465 29.2403C28.158 29.6447 28.0508 29.8771 27.6524 30.0112L27.6635 30.4033L27.3301 30.479Z" fill="white"/>
<mask id="path-14-outside-1_412_644" maskUnits="userSpaceOnUse" x="51.3929" y="11.541" width="137" height="20" fill="black">
<rect fill="white" x="51.3929" y="11.541" width="137" height="20"/>
<path d="M60.1666 30.622C58.5228 30.622 57.1226 30.2443 55.9659 29.4889C54.8091 28.7255 53.9226 27.6647 53.3062 26.3067C52.6973 24.9486 52.3929 23.3735 52.3929 21.5815C52.3929 19.7895 52.6973 18.2144 53.3062 16.8563C53.9226 15.4983 54.8091 14.4415 55.9659 13.6862C57.1226 12.9227 58.5228 12.541 60.1666 12.541C62.0615 12.541 63.6292 13.0473 64.8696 14.0598C66.1177 15.0724 66.9852 16.4345 67.4723 18.1461L65.0523 18.8332C64.7327 17.6198 64.1619 16.6675 63.34 15.9764C62.5257 15.2853 61.4679 14.9398 60.1666 14.9398C59.0023 14.9398 58.032 15.217 57.2558 15.7715C56.4795 16.326 55.8936 17.1014 55.4978 18.0979C55.1097 19.0944 54.9157 20.2556 54.9157 21.5815C54.9081 22.9074 55.0983 24.0686 55.4864 25.0651C55.8822 26.0616 56.4681 26.837 57.2444 27.3915C58.0282 27.946 59.0023 28.2232 60.1666 28.2232C61.4679 28.2232 62.5257 27.8777 63.34 27.1866C64.1619 26.4875 64.7327 25.5352 65.0523 24.3298L67.4723 25.0169C66.9852 26.7285 66.1177 28.0906 64.8696 29.1032C63.6292 30.1157 62.0615 30.622 60.1666 30.622Z"/>
<path d="M73.4645 30.622C72.5513 30.622 71.7865 30.4452 71.17 30.0916C70.5536 29.73 70.0856 29.2559 69.766 28.6692C69.454 28.0746 69.298 27.4237 69.298 26.7165C69.298 26.0575 69.4083 25.479 69.629 24.9807C69.8497 24.4825 70.1769 24.0606 70.6107 23.7151C71.0445 23.3615 71.5772 23.0762 72.2088 22.8592C72.7567 22.6905 73.377 22.5418 74.0695 22.4132C74.762 22.2847 75.4888 22.1641 76.2498 22.0516C77.0184 21.9391 77.7794 21.8266 78.5328 21.7141L77.6652 22.2204C77.6804 21.1998 77.475 20.4444 77.0488 19.9542C76.6303 19.456 75.9073 19.2069 74.8799 19.2069C74.2331 19.2069 73.6395 19.3676 73.0992 19.689C72.5589 20.0024 72.1822 20.5248 71.9691 21.256L69.7432 20.5328C70.0476 19.4158 70.6259 18.5278 71.4783 17.8689C72.3382 17.2099 73.4797 16.8805 74.9028 16.8805C76.0062 16.8805 76.9651 17.0814 77.7794 17.4832C78.6013 17.8769 79.2025 18.5037 79.583 19.3636C79.7808 19.7895 79.9026 20.2395 79.9482 20.7136C79.9939 21.1877 80.0167 21.698 80.0167 22.2445V30.2604H77.9049V27.283L78.3159 27.6688C77.806 28.6652 77.1554 29.4085 76.3639 29.8987C75.5801 30.3809 74.6136 30.622 73.4645 30.622ZM73.8868 28.5608C74.5641 28.5608 75.1463 28.4362 75.6333 28.1871C76.1204 27.9299 76.5123 27.6045 76.8091 27.2107C77.1059 26.8169 77.2999 26.4071 77.3913 25.9812C77.5206 25.5955 77.5929 25.1615 77.6082 24.6794C77.631 24.1972 77.6424 23.8115 77.6424 23.5222L78.4186 23.8235C77.6652 23.9441 76.9803 24.0526 76.3639 24.149C75.7475 24.2454 75.1882 24.3419 74.6859 24.4383C74.1912 24.5267 73.7499 24.6352 73.3617 24.7638C73.0345 24.8843 72.7415 25.0289 72.4828 25.1977C72.2316 25.3664 72.03 25.5714 71.8778 25.8124C71.7332 26.0535 71.6609 26.3468 71.6609 26.6924C71.6609 27.0299 71.7408 27.3433 71.9006 27.6326C72.0604 27.9139 72.3039 28.1389 72.6312 28.3076C72.9584 28.4764 73.377 28.5608 73.8868 28.5608Z"/>
<path d="M87.6953 30.6099C86.1962 30.6099 84.9747 30.2604 84.0311 29.5612C83.0875 28.8621 82.5091 27.8777 82.296 26.608L84.7388 26.2102C84.891 26.8852 85.2411 27.4196 85.789 27.8134C86.3446 28.1991 87.0333 28.392 87.8552 28.392C88.6009 28.392 89.1831 28.2313 89.6017 27.9098C90.0278 27.5884 90.2409 27.1464 90.2409 26.5839C90.2409 26.2544 90.1648 25.9892 90.0126 25.7883C89.868 25.5794 89.5598 25.3825 89.088 25.1977C88.6162 25.0129 87.897 24.7838 86.9305 24.5106C85.8727 24.2213 85.0318 23.9119 84.4078 23.5825C83.7914 23.245 83.35 22.8552 83.0836 22.4132C82.8249 21.9632 82.6955 21.4208 82.6955 20.7859C82.6955 19.9984 82.8934 19.3113 83.2891 18.7247C83.6848 18.1381 84.2404 17.6841 84.9557 17.3626C85.6787 17.0412 86.5234 16.8805 87.4899 16.8805C88.4335 16.8805 89.2744 17.0372 90.0126 17.3506C90.7508 17.664 91.3482 18.11 91.8048 18.6886C92.2614 19.2591 92.5353 19.9301 92.6267 20.7016L90.1838 21.1717C90.1001 20.5449 89.8224 20.0507 89.3505 19.689C88.8787 19.3274 88.2661 19.1305 87.5127 19.0984C86.7897 19.0662 86.2038 19.1948 85.7548 19.4841C85.3058 19.7654 85.0813 20.1551 85.0813 20.6533C85.0813 20.9426 85.165 21.1877 85.3324 21.3886C85.5075 21.5895 85.8423 21.7824 86.3369 21.9672C86.8316 22.1521 87.5622 22.373 88.5286 22.6302C89.5636 22.9115 90.3855 23.2249 90.9943 23.5704C91.6031 23.9079 92.0369 24.3137 92.2956 24.7879C92.562 25.2539 92.6952 25.8205 92.6952 26.4875C92.6952 27.7732 92.25 28.7817 91.3596 29.513C90.4768 30.2443 89.2554 30.6099 87.6953 30.6099Z"/>
<path d="M103.874 30.2604V23.8597C103.874 23.3534 103.832 22.8351 103.748 22.3047C103.672 21.7663 103.52 21.2681 103.291 20.8101C103.071 20.352 102.755 19.9823 102.344 19.7011C101.941 19.4198 101.412 19.2792 100.757 19.2792C100.331 19.2792 99.9277 19.3555 99.5472 19.5082C99.1667 19.6529 98.8319 19.8899 98.5427 20.2194C98.2611 20.5489 98.0366 20.9828 97.8692 21.5212C97.7094 22.0596 97.6295 22.7146 97.6295 23.486L96.1455 22.8954C96.1455 21.7141 96.3548 20.6734 96.7734 19.7734C97.1919 18.8653 97.7931 18.1582 98.577 17.6519C99.3608 17.1456 100.308 16.8925 101.419 16.8925C102.272 16.8925 102.987 17.0372 103.565 17.3265C104.144 17.6157 104.612 17.9975 104.969 18.4716C105.335 18.9377 105.612 19.448 105.803 20.0024C105.993 20.5569 106.122 21.0993 106.191 21.6297C106.259 22.1601 106.294 22.6262 106.294 23.028V30.2604H103.874ZM95.2095 30.2604V12.9026H97.3441V22.2686H97.6295V30.2604H95.2095Z"/>
<path d="M113.837 30.2604V12.9026H120.481C120.641 12.9026 120.839 12.9107 121.074 12.9268C121.31 12.9348 121.535 12.9589 121.748 12.9991C122.661 13.1518 123.422 13.4812 124.031 13.9875C124.647 14.4938 125.108 15.1326 125.412 15.9041C125.717 16.6755 125.869 17.5274 125.869 18.4595C125.869 19.8417 125.534 21.0351 124.864 22.0396C124.195 23.036 123.19 23.6588 121.851 23.9079L120.88 24.0285H116.223V30.2604H113.837ZM123.449 30.2604L120.207 23.1967L122.616 22.5458L126.177 30.2604H123.449ZM116.223 21.6418H120.39C120.542 21.6418 120.709 21.6337 120.892 21.6177C121.082 21.6016 121.261 21.5735 121.428 21.5333C121.915 21.4127 122.307 21.1918 122.604 20.8703C122.901 20.5408 123.114 20.1632 123.243 19.7372C123.373 19.3113 123.437 18.8854 123.437 18.4595C123.437 18.0336 123.373 17.6117 123.243 17.1939C123.114 16.768 122.901 16.3943 122.604 16.0728C122.307 15.7434 121.915 15.5184 121.428 15.3978C121.261 15.3496 121.082 15.3175 120.892 15.3014C120.709 15.2853 120.542 15.2773 120.39 15.2773H116.223V21.6418Z"/>
<path d="M134.04 30.622C132.807 30.622 131.737 30.3287 130.832 29.742C129.926 29.1554 129.226 28.3478 128.732 27.3192C128.244 26.2826 128.001 25.0892 128.001 23.7392C128.001 22.3811 128.252 21.1877 128.754 20.1591C129.257 19.1225 129.961 18.3189 130.866 17.7483C131.772 17.1698 132.83 16.8805 134.04 16.8805C135.272 16.8805 136.342 17.1738 137.247 17.7604C138.153 18.347 138.853 19.1546 139.348 20.1832C139.842 21.2118 140.09 22.3972 140.09 23.7392C140.09 25.0972 139.838 26.2946 139.336 27.3312C138.841 28.3599 138.141 29.1675 137.236 29.7541C136.33 30.3327 135.265 30.622 134.04 30.622ZM134.04 28.2473C135.219 28.2473 136.098 27.8295 136.676 26.9937C137.262 26.15 137.555 25.0651 137.555 23.7392C137.555 22.3811 137.259 21.2962 136.665 20.4846C136.079 19.6649 135.204 19.2551 134.04 19.2551C133.24 19.2551 132.582 19.448 132.065 19.8337C131.547 20.2114 131.163 20.7377 130.912 21.4127C130.661 22.0797 130.535 22.8552 130.535 23.7392C130.535 25.1053 130.832 26.1982 131.425 27.0178C132.019 27.8375 132.89 28.2473 134.04 28.2473Z"/>
<path d="M147.872 30.622C146.608 30.622 145.535 30.3246 144.653 29.73C143.77 29.1353 143.093 28.3197 142.621 27.283C142.157 26.2464 141.921 25.0691 141.913 23.7512C141.921 22.4092 142.164 21.2239 142.644 20.1953C143.123 19.1587 143.808 18.347 144.698 17.7604C145.589 17.1738 146.658 16.8805 147.906 16.8805C149.253 16.8805 150.402 17.234 151.353 17.9412C152.312 18.6484 152.944 19.6167 153.248 20.8462L150.874 21.5695C150.638 20.8382 150.25 20.2716 149.71 19.8698C149.177 19.46 148.564 19.2551 147.872 19.2551C147.088 19.2551 146.445 19.452 145.943 19.8457C145.44 20.2315 145.067 20.7618 144.824 21.4369C144.58 22.1119 144.455 22.8833 144.447 23.7512C144.455 25.0932 144.744 26.1781 145.315 27.0058C145.893 27.8335 146.745 28.2473 147.872 28.2473C148.64 28.2473 149.261 28.0625 149.732 27.6929C150.212 27.3152 150.577 26.7768 150.828 26.0776L153.248 26.6803C152.845 27.95 152.179 28.9264 151.251 29.6094C150.322 30.2845 149.196 30.622 147.872 30.622Z"/>
<path d="M155.562 30.2604L155.574 12.9026H157.994V23.5101L162.834 17.2421H165.87L160.756 23.7512L166.395 30.2604H163.153L157.994 23.9923V30.2604H155.562Z"/>
<path d="M172.791 30.622C171.566 30.622 170.489 30.3407 169.561 29.7782C168.64 29.2076 167.921 28.4161 167.403 27.4036C166.893 26.383 166.638 25.2017 166.638 23.8597C166.638 22.4373 166.889 21.2038 167.392 20.1591C167.902 19.1145 168.609 18.3068 169.515 17.7363C170.421 17.1657 171.475 16.8805 172.677 16.8805C173.933 16.8805 175.002 17.1898 175.885 17.8086C176.767 18.4193 177.426 19.2913 177.859 20.4243C178.301 21.5574 178.476 22.9034 178.384 24.4624H175.999V23.5463C175.983 22.0355 175.71 20.9185 175.177 20.1953C174.652 19.4721 173.849 19.1104 172.768 19.1104C171.573 19.1104 170.675 19.5082 170.074 20.3038C169.473 21.0993 169.172 22.2485 169.172 23.7512C169.172 25.1816 169.473 26.2906 170.074 27.0781C170.675 27.8576 171.543 28.2473 172.677 28.2473C173.423 28.2473 174.066 28.0706 174.606 27.717C175.154 27.3554 175.58 26.8411 175.885 26.1741L178.225 26.9576C177.745 28.1228 177.018 29.0268 176.044 29.6697C175.07 30.3046 173.986 30.622 172.791 30.622ZM168.396 24.4624V22.4976H177.197V24.4624H168.396Z"/>
<path d="M188 30.2604C187.224 30.4211 186.463 30.4894 185.717 30.4653C184.971 30.4412 184.305 30.2885 183.719 30.0072C183.133 29.726 182.692 29.284 182.395 28.6813C182.129 28.1429 181.984 27.5964 181.961 27.042C181.946 26.4794 181.939 25.8446 181.939 25.1374V13.6259H184.336V25.0169C184.336 25.5392 184.34 25.9933 184.347 26.379C184.362 26.7647 184.442 27.0902 184.587 27.3554C184.861 27.8536 185.295 28.1389 185.888 28.2112C186.489 28.2755 187.193 28.2473 188 28.1268V30.2604ZM179.576 19.2671V17.2421H188V19.2671H179.576Z"/>
</mask>
<path d="M60.1666 30.622C58.5228 30.622 57.1226 30.2443 55.9659 29.4889C54.8091 28.7255 53.9226 27.6647 53.3062 26.3067C52.6973 24.9486 52.3929 23.3735 52.3929 21.5815C52.3929 19.7895 52.6973 18.2144 53.3062 16.8563C53.9226 15.4983 54.8091 14.4415 55.9659 13.6862C57.1226 12.9227 58.5228 12.541 60.1666 12.541C62.0615 12.541 63.6292 13.0473 64.8696 14.0598C66.1177 15.0724 66.9852 16.4345 67.4723 18.1461L65.0523 18.8332C64.7327 17.6198 64.1619 16.6675 63.34 15.9764C62.5257 15.2853 61.4679 14.9398 60.1666 14.9398C59.0023 14.9398 58.032 15.217 57.2558 15.7715C56.4795 16.326 55.8936 17.1014 55.4978 18.0979C55.1097 19.0944 54.9157 20.2556 54.9157 21.5815C54.9081 22.9074 55.0983 24.0686 55.4864 25.0651C55.8822 26.0616 56.4681 26.837 57.2444 27.3915C58.0282 27.946 59.0023 28.2232 60.1666 28.2232C61.4679 28.2232 62.5257 27.8777 63.34 27.1866C64.1619 26.4875 64.7327 25.5352 65.0523 24.3298L67.4723 25.0169C66.9852 26.7285 66.1177 28.0906 64.8696 29.1032C63.6292 30.1157 62.0615 30.622 60.1666 30.622Z" fill="#030303"/>
<path d="M73.4645 30.622C72.5513 30.622 71.7865 30.4452 71.17 30.0916C70.5536 29.73 70.0856 29.2559 69.766 28.6692C69.454 28.0746 69.298 27.4237 69.298 26.7165C69.298 26.0575 69.4083 25.479 69.629 24.9807C69.8497 24.4825 70.1769 24.0606 70.6107 23.7151C71.0445 23.3615 71.5772 23.0762 72.2088 22.8592C72.7567 22.6905 73.377 22.5418 74.0695 22.4132C74.762 22.2847 75.4888 22.1641 76.2498 22.0516C77.0184 21.9391 77.7794 21.8266 78.5328 21.7141L77.6652 22.2204C77.6804 21.1998 77.475 20.4444 77.0488 19.9542C76.6303 19.456 75.9073 19.2069 74.8799 19.2069C74.2331 19.2069 73.6395 19.3676 73.0992 19.689C72.5589 20.0024 72.1822 20.5248 71.9691 21.256L69.7432 20.5328C70.0476 19.4158 70.6259 18.5278 71.4783 17.8689C72.3382 17.2099 73.4797 16.8805 74.9028 16.8805C76.0062 16.8805 76.9651 17.0814 77.7794 17.4832C78.6013 17.8769 79.2025 18.5037 79.583 19.3636C79.7808 19.7895 79.9026 20.2395 79.9482 20.7136C79.9939 21.1877 80.0167 21.698 80.0167 22.2445V30.2604H77.9049V27.283L78.3159 27.6688C77.806 28.6652 77.1554 29.4085 76.3639 29.8987C75.5801 30.3809 74.6136 30.622 73.4645 30.622ZM73.8868 28.5608C74.5641 28.5608 75.1463 28.4362 75.6333 28.1871C76.1204 27.9299 76.5123 27.6045 76.8091 27.2107C77.1059 26.8169 77.2999 26.4071 77.3913 25.9812C77.5206 25.5955 77.5929 25.1615 77.6082 24.6794C77.631 24.1972 77.6424 23.8115 77.6424 23.5222L78.4186 23.8235C77.6652 23.9441 76.9803 24.0526 76.3639 24.149C75.7475 24.2454 75.1882 24.3419 74.6859 24.4383C74.1912 24.5267 73.7499 24.6352 73.3617 24.7638C73.0345 24.8843 72.7415 25.0289 72.4828 25.1977C72.2316 25.3664 72.03 25.5714 71.8778 25.8124C71.7332 26.0535 71.6609 26.3468 71.6609 26.6924C71.6609 27.0299 71.7408 27.3433 71.9006 27.6326C72.0604 27.9139 72.3039 28.1389 72.6312 28.3076C72.9584 28.4764 73.377 28.5608 73.8868 28.5608Z" fill="#030303"/>
<path d="M87.6953 30.6099C86.1962 30.6099 84.9747 30.2604 84.0311 29.5612C83.0875 28.8621 82.5091 27.8777 82.296 26.608L84.7388 26.2102C84.891 26.8852 85.2411 27.4196 85.789 27.8134C86.3446 28.1991 87.0333 28.392 87.8552 28.392C88.6009 28.392 89.1831 28.2313 89.6017 27.9098C90.0278 27.5884 90.2409 27.1464 90.2409 26.5839C90.2409 26.2544 90.1648 25.9892 90.0126 25.7883C89.868 25.5794 89.5598 25.3825 89.088 25.1977C88.6162 25.0129 87.897 24.7838 86.9305 24.5106C85.8727 24.2213 85.0318 23.9119 84.4078 23.5825C83.7914 23.245 83.35 22.8552 83.0836 22.4132C82.8249 21.9632 82.6955 21.4208 82.6955 20.7859C82.6955 19.9984 82.8934 19.3113 83.2891 18.7247C83.6848 18.1381 84.2404 17.6841 84.9557 17.3626C85.6787 17.0412 86.5234 16.8805 87.4899 16.8805C88.4335 16.8805 89.2744 17.0372 90.0126 17.3506C90.7508 17.664 91.3482 18.11 91.8048 18.6886C92.2614 19.2591 92.5353 19.9301 92.6267 20.7016L90.1838 21.1717C90.1001 20.5449 89.8224 20.0507 89.3505 19.689C88.8787 19.3274 88.2661 19.1305 87.5127 19.0984C86.7897 19.0662 86.2038 19.1948 85.7548 19.4841C85.3058 19.7654 85.0813 20.1551 85.0813 20.6533C85.0813 20.9426 85.165 21.1877 85.3324 21.3886C85.5075 21.5895 85.8423 21.7824 86.3369 21.9672C86.8316 22.1521 87.5622 22.373 88.5286 22.6302C89.5636 22.9115 90.3855 23.2249 90.9943 23.5704C91.6031 23.9079 92.0369 24.3137 92.2956 24.7879C92.562 25.2539 92.6952 25.8205 92.6952 26.4875C92.6952 27.7732 92.25 28.7817 91.3596 29.513C90.4768 30.2443 89.2554 30.6099 87.6953 30.6099Z" fill="#030303"/>
<path d="M103.874 30.2604V23.8597C103.874 23.3534 103.832 22.8351 103.748 22.3047C103.672 21.7663 103.52 21.2681 103.291 20.8101C103.071 20.352 102.755 19.9823 102.344 19.7011C101.941 19.4198 101.412 19.2792 100.757 19.2792C100.331 19.2792 99.9277 19.3555 99.5472 19.5082C99.1667 19.6529 98.8319 19.8899 98.5427 20.2194C98.2611 20.5489 98.0366 20.9828 97.8692 21.5212C97.7094 22.0596 97.6295 22.7146 97.6295 23.486L96.1455 22.8954C96.1455 21.7141 96.3548 20.6734 96.7734 19.7734C97.1919 18.8653 97.7931 18.1582 98.577 17.6519C99.3608 17.1456 100.308 16.8925 101.419 16.8925C102.272 16.8925 102.987 17.0372 103.565 17.3265C104.144 17.6157 104.612 17.9975 104.969 18.4716C105.335 18.9377 105.612 19.448 105.803 20.0024C105.993 20.5569 106.122 21.0993 106.191 21.6297C106.259 22.1601 106.294 22.6262 106.294 23.028V30.2604H103.874ZM95.2095 30.2604V12.9026H97.3441V22.2686H97.6295V30.2604H95.2095Z" fill="#030303"/>
<path d="M113.837 30.2604V12.9026H120.481C120.641 12.9026 120.839 12.9107 121.074 12.9268C121.31 12.9348 121.535 12.9589 121.748 12.9991C122.661 13.1518 123.422 13.4812 124.031 13.9875C124.647 14.4938 125.108 15.1326 125.412 15.9041C125.717 16.6755 125.869 17.5274 125.869 18.4595C125.869 19.8417 125.534 21.0351 124.864 22.0396C124.195 23.036 123.19 23.6588 121.851 23.9079L120.88 24.0285H116.223V30.2604H113.837ZM123.449 30.2604L120.207 23.1967L122.616 22.5458L126.177 30.2604H123.449ZM116.223 21.6418H120.39C120.542 21.6418 120.709 21.6337 120.892 21.6177C121.082 21.6016 121.261 21.5735 121.428 21.5333C121.915 21.4127 122.307 21.1918 122.604 20.8703C122.901 20.5408 123.114 20.1632 123.243 19.7372C123.373 19.3113 123.437 18.8854 123.437 18.4595C123.437 18.0336 123.373 17.6117 123.243 17.1939C123.114 16.768 122.901 16.3943 122.604 16.0728C122.307 15.7434 121.915 15.5184 121.428 15.3978C121.261 15.3496 121.082 15.3175 120.892 15.3014C120.709 15.2853 120.542 15.2773 120.39 15.2773H116.223V21.6418Z" fill="#030303"/>
<path d="M134.04 30.622C132.807 30.622 131.737 30.3287 130.832 29.742C129.926 29.1554 129.226 28.3478 128.732 27.3192C128.244 26.2826 128.001 25.0892 128.001 23.7392C128.001 22.3811 128.252 21.1877 128.754 20.1591C129.257 19.1225 129.961 18.3189 130.866 17.7483C131.772 17.1698 132.83 16.8805 134.04 16.8805C135.272 16.8805 136.342 17.1738 137.247 17.7604C138.153 18.347 138.853 19.1546 139.348 20.1832C139.842 21.2118 140.09 22.3972 140.09 23.7392C140.09 25.0972 139.838 26.2946 139.336 27.3312C138.841 28.3599 138.141 29.1675 137.236 29.7541C136.33 30.3327 135.265 30.622 134.04 30.622ZM134.04 28.2473C135.219 28.2473 136.098 27.8295 136.676 26.9937C137.262 26.15 137.555 25.0651 137.555 23.7392C137.555 22.3811 137.259 21.2962 136.665 20.4846C136.079 19.6649 135.204 19.2551 134.04 19.2551C133.24 19.2551 132.582 19.448 132.065 19.8337C131.547 20.2114 131.163 20.7377 130.912 21.4127C130.661 22.0797 130.535 22.8552 130.535 23.7392C130.535 25.1053 130.832 26.1982 131.425 27.0178C132.019 27.8375 132.89 28.2473 134.04 28.2473Z" fill="#030303"/>
<path d="M147.872 30.622C146.608 30.622 145.535 30.3246 144.653 29.73C143.77 29.1353 143.093 28.3197 142.621 27.283C142.157 26.2464 141.921 25.0691 141.913 23.7512C141.921 22.4092 142.164 21.2239 142.644 20.1953C143.123 19.1587 143.808 18.347 144.698 17.7604C145.589 17.1738 146.658 16.8805 147.906 16.8805C149.253 16.8805 150.402 17.234 151.353 17.9412C152.312 18.6484 152.944 19.6167 153.248 20.8462L150.874 21.5695C150.638 20.8382 150.25 20.2716 149.71 19.8698C149.177 19.46 148.564 19.2551 147.872 19.2551C147.088 19.2551 146.445 19.452 145.943 19.8457C145.44 20.2315 145.067 20.7618 144.824 21.4369C144.58 22.1119 144.455 22.8833 144.447 23.7512C144.455 25.0932 144.744 26.1781 145.315 27.0058C145.893 27.8335 146.745 28.2473 147.872 28.2473C148.64 28.2473 149.261 28.0625 149.732 27.6929C150.212 27.3152 150.577 26.7768 150.828 26.0776L153.248 26.6803C152.845 27.95 152.179 28.9264 151.251 29.6094C150.322 30.2845 149.196 30.622 147.872 30.622Z" fill="#030303"/>
<path d="M155.562 30.2604L155.574 12.9026H157.994V23.5101L162.834 17.2421H165.87L160.756 23.7512L166.395 30.2604H163.153L157.994 23.9923V30.2604H155.562Z" fill="#030303"/>
<path d="M172.791 30.622C171.566 30.622 170.489 30.3407 169.561 29.7782C168.64 29.2076 167.921 28.4161 167.403 27.4036C166.893 26.383 166.638 25.2017 166.638 23.8597C166.638 22.4373 166.889 21.2038 167.392 20.1591C167.902 19.1145 168.609 18.3068 169.515 17.7363C170.421 17.1657 171.475 16.8805 172.677 16.8805C173.933 16.8805 175.002 17.1898 175.885 17.8086C176.767 18.4193 177.426 19.2913 177.859 20.4243C178.301 21.5574 178.476 22.9034 178.384 24.4624H175.999V23.5463C175.983 22.0355 175.71 20.9185 175.177 20.1953C174.652 19.4721 173.849 19.1104 172.768 19.1104C171.573 19.1104 170.675 19.5082 170.074 20.3038C169.473 21.0993 169.172 22.2485 169.172 23.7512C169.172 25.1816 169.473 26.2906 170.074 27.0781C170.675 27.8576 171.543 28.2473 172.677 28.2473C173.423 28.2473 174.066 28.0706 174.606 27.717C175.154 27.3554 175.58 26.8411 175.885 26.1741L178.225 26.9576C177.745 28.1228 177.018 29.0268 176.044 29.6697C175.07 30.3046 173.986 30.622 172.791 30.622ZM168.396 24.4624V22.4976H177.197V24.4624H168.396Z" fill="#030303"/>
<path d="M188 30.2604C187.224 30.4211 186.463 30.4894 185.717 30.4653C184.971 30.4412 184.305 30.2885 183.719 30.0072C183.133 29.726 182.692 29.284 182.395 28.6813C182.129 28.1429 181.984 27.5964 181.961 27.042C181.946 26.4794 181.939 25.8446 181.939 25.1374V13.6259H184.336V25.0169C184.336 25.5392 184.34 25.9933 184.347 26.379C184.362 26.7647 184.442 27.0902 184.587 27.3554C184.861 27.8536 185.295 28.1389 185.888 28.2112C186.489 28.2755 187.193 28.2473 188 28.1268V30.2604ZM179.576 19.2671V17.2421H188V19.2671H179.576Z" fill="#030303"/>
<path d="M60.1666 30.622C58.5228 30.622 57.1226 30.2443 55.9659 29.4889C54.8091 28.7255 53.9226 27.6647 53.3062 26.3067C52.6973 24.9486 52.3929 23.3735 52.3929 21.5815C52.3929 19.7895 52.6973 18.2144 53.3062 16.8563C53.9226 15.4983 54.8091 14.4415 55.9659 13.6862C57.1226 12.9227 58.5228 12.541 60.1666 12.541C62.0615 12.541 63.6292 13.0473 64.8696 14.0598C66.1177 15.0724 66.9852 16.4345 67.4723 18.1461L65.0523 18.8332C64.7327 17.6198 64.1619 16.6675 63.34 15.9764C62.5257 15.2853 61.4679 14.9398 60.1666 14.9398C59.0023 14.9398 58.032 15.217 57.2558 15.7715C56.4795 16.326 55.8936 17.1014 55.4978 18.0979C55.1097 19.0944 54.9157 20.2556 54.9157 21.5815C54.9081 22.9074 55.0983 24.0686 55.4864 25.0651C55.8822 26.0616 56.4681 26.837 57.2444 27.3915C58.0282 27.946 59.0023 28.2232 60.1666 28.2232C61.4679 28.2232 62.5257 27.8777 63.34 27.1866C64.1619 26.4875 64.7327 25.5352 65.0523 24.3298L67.4723 25.0169C66.9852 26.7285 66.1177 28.0906 64.8696 29.1032C63.6292 30.1157 62.0615 30.622 60.1666 30.622Z" stroke="black" stroke-width="0.6" mask="url(#path-14-outside-1_412_644)"/>
<path d="M73.4645 30.622C72.5513 30.622 71.7865 30.4452 71.17 30.0916C70.5536 29.73 70.0856 29.2559 69.766 28.6692C69.454 28.0746 69.298 27.4237 69.298 26.7165C69.298 26.0575 69.4083 25.479 69.629 24.9807C69.8497 24.4825 70.1769 24.0606 70.6107 23.7151C71.0445 23.3615 71.5772 23.0762 72.2088 22.8592C72.7567 22.6905 73.377 22.5418 74.0695 22.4132C74.762 22.2847 75.4888 22.1641 76.2498 22.0516C77.0184 21.9391 77.7794 21.8266 78.5328 21.7141L77.6652 22.2204C77.6804 21.1998 77.475 20.4444 77.0488 19.9542C76.6303 19.456 75.9073 19.2069 74.8799 19.2069C74.2331 19.2069 73.6395 19.3676 73.0992 19.689C72.5589 20.0024 72.1822 20.5248 71.9691 21.256L69.7432 20.5328C70.0476 19.4158 70.6259 18.5278 71.4783 17.8689C72.3382 17.2099 73.4797 16.8805 74.9028 16.8805C76.0062 16.8805 76.9651 17.0814 77.7794 17.4832C78.6013 17.8769 79.2025 18.5037 79.583 19.3636C79.7808 19.7895 79.9026 20.2395 79.9482 20.7136C79.9939 21.1877 80.0167 21.698 80.0167 22.2445V30.2604H77.9049V27.283L78.3159 27.6688C77.806 28.6652 77.1554 29.4085 76.3639 29.8987C75.5801 30.3809 74.6136 30.622 73.4645 30.622ZM73.8868 28.5608C74.5641 28.5608 75.1463 28.4362 75.6333 28.1871C76.1204 27.9299 76.5123 27.6045 76.8091 27.2107C77.1059 26.8169 77.2999 26.4071 77.3913 25.9812C77.5206 25.5955 77.5929 25.1615 77.6082 24.6794C77.631 24.1972 77.6424 23.8115 77.6424 23.5222L78.4186 23.8235C77.6652 23.9441 76.9803 24.0526 76.3639 24.149C75.7475 24.2454 75.1882 24.3419 74.6859 24.4383C74.1912 24.5267 73.7499 24.6352 73.3617 24.7638C73.0345 24.8843 72.7415 25.0289 72.4828 25.1977C72.2316 25.3664 72.03 25.5714 71.8778 25.8124C71.7332 26.0535 71.6609 26.3468 71.6609 26.6924C71.6609 27.0299 71.7408 27.3433 71.9006 27.6326C72.0604 27.9139 72.3039 28.1389 72.6312 28.3076C72.9584 28.4764 73.377 28.5608 73.8868 28.5608Z" stroke="black" stroke-width="0.6" mask="url(#path-14-outside-1_412_644)"/>
<path d="M87.6953 30.6099C86.1962 30.6099 84.9747 30.2604 84.0311 29.5612C83.0875 28.8621 82.5091 27.8777 82.296 26.608L84.7388 26.2102C84.891 26.8852 85.2411 27.4196 85.789 27.8134C86.3446 28.1991 87.0333 28.392 87.8552 28.392C88.6009 28.392 89.1831 28.2313 89.6017 27.9098C90.0278 27.5884 90.2409 27.1464 90.2409 26.5839C90.2409 26.2544 90.1648 25.9892 90.0126 25.7883C89.868 25.5794 89.5598 25.3825 89.088 25.1977C88.6162 25.0129 87.897 24.7838 86.9305 24.5106C85.8727 24.2213 85.0318 23.9119 84.4078 23.5825C83.7914 23.245 83.35 22.8552 83.0836 22.4132C82.8249 21.9632 82.6955 21.4208 82.6955 20.7859C82.6955 19.9984 82.8934 19.3113 83.2891 18.7247C83.6848 18.1381 84.2404 17.6841 84.9557 17.3626C85.6787 17.0412 86.5234 16.8805 87.4899 16.8805C88.4335 16.8805 89.2744 17.0372 90.0126 17.3506C90.7508 17.664 91.3482 18.11 91.8048 18.6886C92.2614 19.2591 92.5353 19.9301 92.6267 20.7016L90.1838 21.1717C90.1001 20.5449 89.8224 20.0507 89.3505 19.689C88.8787 19.3274 88.2661 19.1305 87.5127 19.0984C86.7897 19.0662 86.2038 19.1948 85.7548 19.4841C85.3058 19.7654 85.0813 20.1551 85.0813 20.6533C85.0813 20.9426 85.165 21.1877 85.3324 21.3886C85.5075 21.5895 85.8423 21.7824 86.3369 21.9672C86.8316 22.1521 87.5622 22.373 88.5286 22.6302C89.5636 22.9115 90.3855 23.2249 90.9943 23.5704C91.6031 23.9079 92.0369 24.3137 92.2956 24.7879C92.562 25.2539 92.6952 25.8205 92.6952 26.4875C92.6952 27.7732 92.25 28.7817 91.3596 29.513C90.4768 30.2443 89.2554 30.6099 87.6953 30.6099Z" stroke="black" stroke-width="0.6" mask="url(#path-14-outside-1_412_644)"/>
<path d="M103.874 30.2604V23.8597C103.874 23.3534 103.832 22.8351 103.748 22.3047C103.672 21.7663 103.52 21.2681 103.291 20.8101C103.071 20.352 102.755 19.9823 102.344 19.7011C101.941 19.4198 101.412 19.2792 100.757 19.2792C100.331 19.2792 99.9277 19.3555 99.5472 19.5082C99.1667 19.6529 98.8319 19.8899 98.5427 20.2194C98.2611 20.5489 98.0366 20.9828 97.8692 21.5212C97.7094 22.0596 97.6295 22.7146 97.6295 23.486L96.1455 22.8954C96.1455 21.7141 96.3548 20.6734 96.7734 19.7734C97.1919 18.8653 97.7931 18.1582 98.577 17.6519C99.3608 17.1456 100.308 16.8925 101.419 16.8925C102.272 16.8925 102.987 17.0372 103.565 17.3265C104.144 17.6157 104.612 17.9975 104.969 18.4716C105.335 18.9377 105.612 19.448 105.803 20.0024C105.993 20.5569 106.122 21.0993 106.191 21.6297C106.259 22.1601 106.294 22.6262 106.294 23.028V30.2604H103.874ZM95.2095 30.2604V12.9026H97.3441V22.2686H97.6295V30.2604H95.2095Z" stroke="black" stroke-width="0.6" mask="url(#path-14-outside-1_412_644)"/>
<path d="M113.837 30.2604V12.9026H120.481C120.641 12.9026 120.839 12.9107 121.074 12.9268C121.31 12.9348 121.535 12.9589 121.748 12.9991C122.661 13.1518 123.422 13.4812 124.031 13.9875C124.647 14.4938 125.108 15.1326 125.412 15.9041C125.717 16.6755 125.869 17.5274 125.869 18.4595C125.869 19.8417 125.534 21.0351 124.864 22.0396C124.195 23.036 123.19 23.6588 121.851 23.9079L120.88 24.0285H116.223V30.2604H113.837ZM123.449 30.2604L120.207 23.1967L122.616 22.5458L126.177 30.2604H123.449ZM116.223 21.6418H120.39C120.542 21.6418 120.709 21.6337 120.892 21.6177C121.082 21.6016 121.261 21.5735 121.428 21.5333C121.915 21.4127 122.307 21.1918 122.604 20.8703C122.901 20.5408 123.114 20.1632 123.243 19.7372C123.373 19.3113 123.437 18.8854 123.437 18.4595C123.437 18.0336 123.373 17.6117 123.243 17.1939C123.114 16.768 122.901 16.3943 122.604 16.0728C122.307 15.7434 121.915 15.5184 121.428 15.3978C121.261 15.3496 121.082 15.3175 120.892 15.3014C120.709 15.2853 120.542 15.2773 120.39 15.2773H116.223V21.6418Z" stroke="black" stroke-width="0.6" mask="url(#path-14-outside-1_412_644)"/>
<path d="M134.04 30.622C132.807 30.622 131.737 30.3287 130.832 29.742C129.926 29.1554 129.226 28.3478 128.732 27.3192C128.244 26.2826 128.001 25.0892 128.001 23.7392C128.001 22.3811 128.252 21.1877 128.754 20.1591C129.257 19.1225 129.961 18.3189 130.866 17.7483C131.772 17.1698 132.83 16.8805 134.04 16.8805C135.272 16.8805 136.342 17.1738 137.247 17.7604C138.153 18.347 138.853 19.1546 139.348 20.1832C139.842 21.2118 140.09 22.3972 140.09 23.7392C140.09 25.0972 139.838 26.2946 139.336 27.3312C138.841 28.3599 138.141 29.1675 137.236 29.7541C136.33 30.3327 135.265 30.622 134.04 30.622ZM134.04 28.2473C135.219 28.2473 136.098 27.8295 136.676 26.9937C137.262 26.15 137.555 25.0651 137.555 23.7392C137.555 22.3811 137.259 21.2962 136.665 20.4846C136.079 19.6649 135.204 19.2551 134.04 19.2551C133.24 19.2551 132.582 19.448 132.065 19.8337C131.547 20.2114 131.163 20.7377 130.912 21.4127C130.661 22.0797 130.535 22.8552 130.535 23.7392C130.535 25.1053 130.832 26.1982 131.425 27.0178C132.019 27.8375 132.89 28.2473 134.04 28.2473Z" stroke="black" stroke-width="0.6" mask="url(#path-14-outside-1_412_644)"/>
<path d="M147.872 30.622C146.608 30.622 145.535 30.3246 144.653 29.73C143.77 29.1353 143.093 28.3197 142.621 27.283C142.157 26.2464 141.921 25.0691 141.913 23.7512C141.921 22.4092 142.164 21.2239 142.644 20.1953C143.123 19.1587 143.808 18.347 144.698 17.7604C145.589 17.1738 146.658 16.8805 147.906 16.8805C149.253 16.8805 150.402 17.234 151.353 17.9412C152.312 18.6484 152.944 19.6167 153.248 20.8462L150.874 21.5695C150.638 20.8382 150.25 20.2716 149.71 19.8698C149.177 19.46 148.564 19.2551 147.872 19.2551C147.088 19.2551 146.445 19.452 145.943 19.8457C145.44 20.2315 145.067 20.7618 144.824 21.4369C144.58 22.1119 144.455 22.8833 144.447 23.7512C144.455 25.0932 144.744 26.1781 145.315 27.0058C145.893 27.8335 146.745 28.2473 147.872 28.2473C148.64 28.2473 149.261 28.0625 149.732 27.6929C150.212 27.3152 150.577 26.7768 150.828 26.0776L153.248 26.6803C152.845 27.95 152.179 28.9264 151.251 29.6094C150.322 30.2845 149.196 30.622 147.872 30.622Z" stroke="black" stroke-width="0.6" mask="url(#path-14-outside-1_412_644)"/>
<path d="M155.562 30.2604L155.574 12.9026H157.994V23.5101L162.834 17.2421H165.87L160.756 23.7512L166.395 30.2604H163.153L157.994 23.9923V30.2604H155.562Z" stroke="black" stroke-width="0.6" mask="url(#path-14-outside-1_412_644)"/>
<path d="M172.791 30.622C171.566 30.622 170.489 30.3407 169.561 29.7782C168.64 29.2076 167.921 28.4161 167.403 27.4036C166.893 26.383 166.638 25.2017 166.638 23.8597C166.638 22.4373 166.889 21.2038 167.392 20.1591C167.902 19.1145 168.609 18.3068 169.515 17.7363C170.421 17.1657 171.475 16.8805 172.677 16.8805C173.933 16.8805 175.002 17.1898 175.885 17.8086C176.767 18.4193 177.426 19.2913 177.859 20.4243C178.301 21.5574 178.476 22.9034 178.384 24.4624H175.999V23.5463C175.983 22.0355 175.71 20.9185 175.177 20.1953C174.652 19.4721 173.849 19.1104 172.768 19.1104C171.573 19.1104 170.675 19.5082 170.074 20.3038C169.473 21.0993 169.172 22.2485 169.172 23.7512C169.172 25.1816 169.473 26.2906 170.074 27.0781C170.675 27.8576 171.543 28.2473 172.677 28.2473C173.423 28.2473 174.066 28.0706 174.606 27.717C175.154 27.3554 175.58 26.8411 175.885 26.1741L178.225 26.9576C177.745 28.1228 177.018 29.0268 176.044 29.6697C175.07 30.3046 173.986 30.622 172.791 30.622ZM168.396 24.4624V22.4976H177.197V24.4624H168.396Z" stroke="black" stroke-width="0.6" mask="url(#path-14-outside-1_412_644)"/>
<path d="M188 30.2604C187.224 30.4211 186.463 30.4894 185.717 30.4653C184.971 30.4412 184.305 30.2885 183.719 30.0072C183.133 29.726 182.692 29.284 182.395 28.6813C182.129 28.1429 181.984 27.5964 181.961 27.042C181.946 26.4794 181.939 25.8446 181.939 25.1374V13.6259H184.336V25.0169C184.336 25.5392 184.34 25.9933 184.347 26.379C184.362 26.7647 184.442 27.0902 184.587 27.3554C184.861 27.8536 185.295 28.1389 185.888 28.2112C186.489 28.2755 187.193 28.2473 188 28.1268V30.2604ZM179.576 19.2671V17.2421H188V19.2671H179.576Z" stroke="black" stroke-width="0.6" mask="url(#path-14-outside-1_412_644)"/>
<defs>
<linearGradient id="paint0_linear_412_644" x1="1.0459" y1="14.6074" x2="26.3252" y2="14.6074" gradientUnits="userSpaceOnUse">
<stop stop-color="#FF8C84"/>
<stop offset="1" stop-color="#FF9CAD"/>
</linearGradient>
<linearGradient id="paint1_linear_412_644" x1="27.0049" y1="1.00204" x2="27.0049" y2="12.586" gradientUnits="userSpaceOnUse">
<stop stop-color="#FFA6A5"/>
<stop offset="1" stop-color="#8555EA"/>
</linearGradient>
<linearGradient id="paint2_linear_412_644" x1="24.2623" y1="5.47643" x2="24.2623" y2="36.8067" gradientUnits="userSpaceOnUse">
<stop stop-color="#FFA6A5"/>
<stop offset="1" stop-color="#8555EA"/>
</linearGradient>
<linearGradient id="paint3_linear_412_644" x1="1.06213" y1="29.0706" x2="34.5575" y2="29.0706" gradientUnits="userSpaceOnUse">
<stop stop-color="#FFABA5"/>
<stop offset="1" stop-color="#FF7C92"/>
</linearGradient>
</defs>
</svg>
