<svg width="48" height="48" viewBox="0 0 48 48" fill="none" xmlns="http://www.w3.org/2000/svg">
<circle cx="24" cy="24" r="24" fill="#FBEBFA"/>
<path d="M28.6746 15.6962L28.6657 12.4923L10.7025 14.7689C8.40679 15.0501 6.75807 17.1576 7.04147 19.4502C7.32309 21.7429 9.43346 23.3893 11.7292 23.1063L28.9366 20.9899" fill="url(#paint0_linear_411_628)"/>
<path d="M18.0215 13.9323L18.0304 9.2011L36.3072 6.78388C38.603 6.49909 40.7151 8.14201 40.9985 10.4346C41.2837 12.7272 39.6385 14.8365 37.3428 15.1195L28.5662 16.1715L28.5413 12.4513L18.0215 13.9323Z" fill="url(#paint1_linear_411_628)"/>
<path d="M18.0177 13.2577L18.0267 9.09429L36.3088 6.78209C38.6046 6.49729 40.7167 8.14022 41.0001 10.4328C41.2853 12.7255 39.6401 14.8347 37.3444 15.1178L13.2961 18.0779L13.2997 23.3092" stroke="#E3CAFD" stroke-miterlimit="10" stroke-linecap="round" stroke-linejoin="round"/>
<path d="M28.6746 15.6962L28.6657 12.4923L10.7025 14.7689C8.40679 15.0501 6.75807 17.1576 7.04147 19.4502C7.32309 21.7429 9.43346 23.3893 11.7292 23.1063L28.9366 20.9899" stroke="#FFC6B9" stroke-miterlimit="10" stroke-linecap="round" stroke-linejoin="round"/>
<path d="M40.977 10.3901C41.2622 12.6827 39.6171 14.792 37.3213 15.075L13.2962 18.0779L13.282 35.867L37.3178 32.8286C39.6135 32.5438 41.2587 30.4363 40.9735 28.1437L41.0127 28.2344L41.0002 10.4453" fill="url(#paint2_linear_411_628)"/>
<path d="M40.977 10.3901C41.2622 12.6827 39.6171 14.792 37.3213 15.075L13.2962 18.0779L13.282 35.867L37.3178 32.8286C39.6135 32.5438 41.2587 30.4363 40.9735 28.1437L41.0127 28.2344L41.0002 10.4453" stroke="#E3CAFD" stroke-miterlimit="10" stroke-linecap="round" stroke-linejoin="round"/>
<path d="M41.5313 25.5929C41.1054 27.7574 39.8523 30.0536 37.1751 30.3384L16.2532 32.7894L16.2586 22.761C16.296 22.7663 16.3334 22.7752 16.3709 22.7806C17.8681 22.9532 19.2245 21.8817 19.3974 20.3847C19.4081 20.2904 19.4134 20.196 19.4134 20.1017L35.3785 18.1063C38.6011 17.7076 40.92 16.5026 41.5349 14.8329L41.5189 12.3125C41.084 14.8614 39.0467 16.3904 35.2234 16.8639L15.5545 19.3221C15.2408 19.3612 15.0055 19.6282 15.0055 19.9433L14.9984 33.4925C14.9984 33.6723 15.0751 33.8414 15.2087 33.9606C15.3246 34.0639 15.4725 34.1191 15.6258 34.1191C15.6508 34.1191 15.6739 34.1173 15.6989 34.1155L37.316 31.5844C39.2017 31.3832 41.2515 29.6905 41.5367 28.3857L41.5313 25.5929Z" fill="#E3CAFD"/>
<path d="M7.04175 18.8949C7.32337 21.1875 9.43374 22.834 11.7295 22.5509L36.0772 19.5018L36.0611 37.2554L11.7134 40.2956C9.4177 40.5768 7.30733 38.9321 7.02571 36.6395H7.03462L7.02393 18.8254L7.03106 18.9554" fill="url(#paint3_linear_411_628)"/>
<path d="M7.04175 18.8949C7.32337 21.1875 9.43374 22.834 11.7295 22.5509L36.0772 19.5018L36.0611 37.2554L11.7134 40.2956C9.4177 40.5768 7.30733 38.9321 7.02571 36.6395H7.03462L7.02393 18.8254L7.03106 18.9554" stroke="#FFC6B9" stroke-miterlimit="10" stroke-linecap="round" stroke-linejoin="round"/>
<path d="M34.3305 21.3548C34.1951 21.2356 34.0168 21.1804 33.8386 21.2018L13.2019 23.7596C11.0523 23.9287 8.94903 23.368 7.70491 22.2982C7.1078 21.7838 6.70319 21.1786 6.50356 20.4915L6.51069 22.7432C6.61586 22.9177 6.71567 23.0992 6.885 23.2452C8.39827 24.5481 10.801 25.2067 13.3141 25.0056C13.3231 25.0056 13.332 25.0038 13.3409 25.002L30.5411 22.8696C30.5839 24.3381 31.787 25.5182 33.2682 25.5182C33.2736 25.5182 33.2771 25.5182 33.2825 25.5182L33.2753 32.3142C31.8369 32.3925 30.6944 33.578 30.6944 35.034C30.6944 35.1444 30.7033 35.2512 30.7158 35.358L13.1912 37.5242C10.4356 37.6969 7.26465 36.6378 6.51069 33.2131L6.5 35.5858C7.37516 37.6132 9.96322 38.7951 12.5869 38.7951C12.8169 38.7951 13.0521 38.788 13.291 38.772C13.3035 38.772 13.3159 38.7702 13.3266 38.7684L33.9758 36.2177C34.2895 36.1785 34.5248 35.9133 34.5266 35.5965L34.5409 21.823C34.5426 21.645 34.466 21.4741 34.3305 21.3548Z" fill="#FFC6B9"/>
<path d="M15.3425 35.2422V34.1066C14.8221 34.1671 14.2713 34.1511 13.8043 34.0568L14.0325 32.9799C14.5012 33.044 15.1037 33.0742 15.7168 32.9692C16.5902 32.8179 16.715 32.5918 16.715 31.9439C16.715 31.296 16.6633 31.1928 15.6028 31.1216C14.0325 31.0094 13.8453 30.6659 13.8453 29.3576C13.8453 28.1739 14.282 27.5367 15.5921 27.2341V26.0789L16.6419 25.924V27.0757C17.0269 27.0383 17.4939 27.0276 17.8682 27.0632L17.7328 28.1579C17.2337 28.133 16.5474 28.1686 16.0377 28.2487C15.3212 28.3608 15.1126 28.5068 15.1126 29.1885C15.1126 29.8507 15.1536 29.8631 16.1428 29.9717C17.9217 30.1746 17.9841 30.5021 17.9841 31.7179C17.9841 32.8944 17.6312 33.5602 16.3835 33.9126V35.0536L15.3425 35.2422Z" fill="white"/>
<path opacity="0.7" d="M23.9675 33.0447L23.9122 32.3442C23.5941 32.4068 23.2536 32.4236 22.961 32.3881L23.0493 31.7127C23.3416 31.7295 23.7147 31.7189 24.0878 31.6244C24.6192 31.4886 24.6851 31.3431 24.6536 30.9435C24.622 30.5438 24.5851 30.4826 23.9275 30.4902C22.9534 30.4973 22.8212 30.2944 22.7575 29.4874C22.6999 28.7572 22.9382 28.343 23.7316 28.0927L23.6754 27.3801L24.3154 27.2336L24.3715 27.944C24.6072 27.9023 24.8947 27.873 25.1273 27.8768L25.0971 28.5586C24.788 28.5675 24.3664 28.6228 24.0559 28.6969C23.6193 28.8009 23.4978 28.901 23.531 29.3216C23.5632 29.73 23.5891 29.7357 24.2046 29.7547C25.3118 29.7935 25.3662 29.9925 25.4254 30.7424C25.4827 31.4682 25.2974 31.896 24.5449 32.1739L24.6004 32.8777L23.9675 33.0447Z" fill="white"/>
<path opacity="0.4" d="M29.8079 30.7214L29.7983 30.4041C29.6534 30.4254 29.4994 30.4255 29.3681 30.4031L29.4228 30.1002C29.5543 30.1142 29.7228 30.1175 29.8932 30.083C30.136 30.0334 30.1689 29.9692 30.1634 29.7881C30.158 29.607 30.1426 29.5786 29.8458 29.5676C29.4061 29.5495 29.3509 29.4551 29.3399 29.0894C29.3299 28.7586 29.4465 28.5768 29.8099 28.4812L29.8002 28.1584L30.0922 28.1063L30.1019 28.4281C30.2091 28.4144 30.3395 28.4075 30.4444 28.4143L30.4158 28.7214C30.2761 28.7186 30.0847 28.7344 29.943 28.761C29.7438 28.7984 29.6867 28.841 29.6925 29.0315C29.6981 29.2166 29.7097 29.2197 29.9869 29.2417C30.4856 29.2834 30.5058 29.3744 30.5161 29.7142C30.526 30.043 30.433 30.2321 30.0874 30.3411L30.0971 30.66L29.8079 30.7214Z" fill="white"/>
<defs>
<linearGradient id="paint0_linear_411_628" x1="7.00977" y1="17.8151" x2="28.9366" y2="17.8151" gradientUnits="userSpaceOnUse">
<stop stop-color="#FF8C84"/>
<stop offset="1" stop-color="#FF9CAD"/>
</linearGradient>
<linearGradient id="paint1_linear_411_628" x1="29.5261" y1="6.75179" x2="29.5261" y2="16.1715" gradientUnits="userSpaceOnUse">
<stop stop-color="#FFA6A5"/>
<stop offset="1" stop-color="#8555EA"/>
</linearGradient>
<linearGradient id="paint2_linear_411_628" x1="27.1473" y1="10.3901" x2="27.1473" y2="35.867" gradientUnits="userSpaceOnUse">
<stop stop-color="#FFA6A5"/>
<stop offset="1" stop-color="#8555EA"/>
</linearGradient>
<linearGradient id="paint3_linear_411_628" x1="7.02393" y1="29.5762" x2="36.0772" y2="29.5762" gradientUnits="userSpaceOnUse">
<stop stop-color="#FFABA5"/>
<stop offset="1" stop-color="#FF7C92"/>
</linearGradient>
</defs>
</svg>
