<svg width="70" height="69" viewBox="0 0 70 69" fill="none" xmlns="http://www.w3.org/2000/svg">
<path d="M69.5045 50.5585C69.2288 51.8555 69.0728 53.1906 68.6574 54.4423C66.1178 62.1063 60.9117 66.859 52.9774 68.468C48.7762 69.3187 44.7056 68.7056 40.8237 66.8825C40.7021 66.8263 40.577 66.7828 40.4609 66.7356C40.1647 67.1085 39.8486 67.4652 39.514 67.804C38.6904 68.5623 37.6782 68.8289 36.579 68.8289C26.0349 68.8289 15.4896 68.8289 4.9431 68.8289C2.31101 68.8289 0.672988 67.151 0.66936 64.5371C0.66936 63.6301 0.716523 62.7231 0.66936 61.8161C0.536939 59.7173 1.31695 58.1664 3.19442 57.3174C2.42892 54.6581 2.57041 52.0478 3.0747 49.296C3.15815 49.3994 3.14 49.3522 3.10735 49.3395C0.738292 48.4108 0 47.3278 0 44.7755C0 43.7125 0 42.6477 0 41.5847C0.0160532 40.5496 0.436142 39.5617 1.17059 38.832C1.90503 38.1023 2.89563 37.6886 3.9309 37.6792C4.58574 37.6792 5.24059 37.6792 5.90451 37.6792C5.32222 35.3628 5.32041 32.0559 5.86279 30.2002C5.11362 29.9607 4.31546 29.8247 3.63703 29.4637C2.32189 28.7617 1.65435 27.5808 1.62352 26.0843C1.59631 24.7945 1.60719 23.5048 1.62352 22.215C1.63474 21.1748 2.05173 20.18 2.78565 19.4427C3.51958 18.7054 4.5124 18.2838 5.5526 18.2678C6.20926 18.2569 6.86774 18.2297 7.52077 18.2678C8.03957 18.3059 8.31349 18.1245 8.57651 17.6674C11.1161 13.2159 13.6792 8.77404 16.266 4.34188C17.953 1.4395 21.5937 0.713912 24.135 2.78911C24.7444 3.32553 25.2557 3.9639 25.6461 4.67565C28.1857 9.00381 30.6968 13.3465 33.1796 17.7037C33.4081 18.1027 33.6439 18.2841 34.1246 18.2678C35.3454 18.2315 36.5681 18.2497 37.7907 18.2569C38.3177 18.2485 38.8411 18.3453 39.3302 18.5418C39.8194 18.7383 40.2643 19.0304 40.639 19.4011C41.0138 19.7717 41.3107 20.2135 41.5125 20.7005C41.7143 21.1874 41.8168 21.7097 41.8141 22.2368C41.8377 23.4812 41.854 24.7274 41.8141 25.97C41.7905 26.6085 41.62 27.2398 41.5057 27.9291C42.6034 27.9241 43.6653 28.3187 44.4934 29.0392C44.6294 29.159 44.9686 29.1009 45.199 29.0538C50.6917 27.9363 55.7902 28.9002 60.4945 31.9452C60.7503 32.1121 61.1022 32.3552 61.1294 32.5947C61.1771 32.9975 61.0807 33.4043 60.8573 33.7429C60.5525 34.1438 60.061 34.0658 59.622 33.8245C58.5336 33.2295 57.4833 32.5439 56.3459 32.0668C45.618 27.5518 33.4208 34.3651 31.605 45.853C30.8671 50.46 31.9397 55.1737 34.5983 59.0079C37.2568 62.842 41.2952 65.4993 45.8683 66.4236C55.8725 68.477 65.697 61.6184 67.2334 51.4709C68.0842 45.8567 66.5351 40.9226 62.84 36.638C62.6593 36.4679 62.5068 36.2701 62.3883 36.0521C62.196 35.5678 62.2686 35.1016 62.7348 34.795C63.2481 34.4576 63.7234 34.5773 64.1297 35.0109C65.4653 36.4299 66.5817 38.0404 67.442 39.7889C68.4863 41.8728 69.1457 44.128 69.3884 46.4462C69.4168 46.6006 69.4599 46.7518 69.5172 46.8979L69.5045 50.5585ZM13.8588 27.062C13.2965 27.062 12.7559 27.1019 12.2262 27.0529C11.643 27.0061 11.0654 26.9047 10.5011 26.75C10.3742 26.7164 10.2552 26.6579 10.151 26.578C10.0468 26.4981 9.95943 26.3984 9.89399 26.2845C9.82854 26.1707 9.7863 26.045 9.76971 25.9147C9.75312 25.7844 9.7625 25.6522 9.79732 25.5256C9.94062 25.0013 10.4231 24.7238 11.0036 24.7728C12.1464 24.8671 13.2911 24.965 14.4375 25.0013C15.7073 25.043 15.983 25.297 15.983 26.5704C15.983 31.5697 15.983 36.5691 15.983 41.5684C15.983 42.7294 16.6306 43.3679 17.797 43.3715C19.8528 43.3788 21.9117 43.3788 23.9736 43.3715C25.0511 43.3715 25.6951 42.7421 25.7658 41.6646C25.7803 41.4614 25.7658 41.2582 25.7658 41.0551C25.7658 36.1452 25.7658 31.236 25.7658 26.3273C25.7658 25.3442 26.0814 25.0249 27.0519 25.0122C27.7539 25.0122 28.4541 25.0122 29.1561 25.0122C32.0585 24.9923 33.5315 22.4527 32.0839 19.9331C29.3242 15.1357 26.5567 10.3431 23.7813 5.55543C22.3138 3.03218 19.3933 3.03218 17.9294 5.55362C15.1558 10.3425 12.4004 15.1423 9.62137 19.9294C9.17085 20.6669 8.9829 21.535 9.08806 22.3928C9.18238 23.191 8.84498 23.6626 8.20283 23.7206C7.56068 23.7787 7.11444 23.3579 7.05821 22.5742C7.01105 21.8486 7.05821 21.1013 7.05821 20.2995C6.69541 20.2995 6.27819 20.2995 5.85191 20.2995C4.45514 20.3285 3.67513 21.1049 3.66425 22.5089C3.65336 23.5266 3.66425 24.5442 3.66425 25.5618C3.66425 27.2307 4.38984 27.9418 6.0714 27.9454C8.44772 27.9454 10.8234 27.9454 13.1985 27.9454C13.4162 27.9454 13.6339 27.9218 13.877 27.9073C13.8933 27.7259 13.9114 27.5881 13.9132 27.4556C13.9151 27.3232 13.8788 27.238 13.8588 27.062ZM38.578 65.7107C38.4932 65.6262 38.4029 65.5474 38.3077 65.4749C35.9494 63.899 33.9407 61.8546 32.4068 59.4688C32.3182 59.3651 32.2088 59.2811 32.0857 59.2224C31.9625 59.1636 31.8284 59.1314 31.6921 59.1278C22.7564 59.1108 13.8195 59.1072 4.88143 59.1169C3.49736 59.1169 2.70465 59.9187 2.70465 61.3209C2.69558 62.2696 2.70465 63.2201 2.70465 64.1706C2.70465 66.1007 3.34318 66.7465 5.24423 66.7465H36.8728C37.6365 66.7447 38.1898 66.3891 38.578 65.7107ZM29.2976 49.4792C29.1902 49.4594 29.0818 49.4454 28.9729 49.4375C21.5719 49.4375 14.172 49.4375 6.77341 49.4375C5.52721 49.4375 4.7617 50.2393 4.73812 51.4927C4.71635 52.5557 4.73812 53.6205 4.73812 54.6835C4.73812 56.3288 5.49274 57.0707 7.15798 57.0707H31.1134C30.0356 54.6771 29.4196 52.1014 29.2976 49.4792V49.4792ZM13.9078 39.7145C10.4957 39.7145 7.19606 39.6873 3.89643 39.729C2.78446 39.7436 2.05162 40.5979 2.02441 41.7462C1.9972 42.8092 2.02441 43.8722 2.02441 44.9352C2.02441 46.6276 2.7246 47.3387 4.39528 47.3387H29.2468C29.5135 45.9837 29.6931 44.6867 30.0341 43.4314C30.3751 42.1761 30.8776 40.9789 31.3039 39.7472H27.8192C27.8192 40.3676 27.8192 40.9517 27.8192 41.534C27.8192 43.8577 26.2846 45.4014 23.9609 45.4159C21.9256 45.4286 19.8903 45.4249 17.855 45.4159C15.4624 45.4068 13.9622 43.9302 13.9169 41.543C13.8969 40.9607 13.9078 40.3766 13.9078 39.7145V39.7145ZM27.8392 37.6684C29.2577 37.6684 30.6309 37.6502 32.0113 37.6792C32.1976 37.6966 32.385 37.6604 32.5515 37.5749C32.7179 37.4894 32.8565 37.3582 32.951 37.1967C34.9819 34.2658 37.7638 31.935 41.0051 30.4487C41.1992 30.358 41.3896 30.2673 41.747 30.0859H27.8464L27.8392 37.6684ZM27.8392 27.9236C31.2694 27.9236 34.6344 27.9472 37.9975 27.9091C39.0042 27.8983 39.7389 27.0493 39.7589 26.0226C39.7818 24.7589 39.7818 23.4927 39.7589 22.2241C39.7425 21.2736 39.1258 20.47 38.1843 20.3865C37.0034 20.285 35.808 20.363 34.5963 20.363C34.5957 20.5023 34.603 20.6416 34.618 20.7802C35.1241 23.8839 33.2394 26.5505 30.152 27.0076C29.4046 27.1182 28.6301 27.0239 27.8374 27.0239L27.8392 27.9236ZM13.8715 30.0478C12.2807 30.0478 10.7696 30.0134 9.26038 30.0605C8.30985 30.0895 7.59333 30.924 7.57701 31.9325C7.55766 33.1963 7.55766 34.4606 7.57701 35.7256C7.59333 36.7487 8.3026 37.5904 9.30936 37.6375C10.815 37.7065 12.3242 37.6557 13.8715 37.6557V30.0478Z" fill="#3EA9F4"/>
<path d="M63.3099 48.6774C63.348 56.278 57.1133 62.5961 49.5345 62.6342C47.6995 62.6456 45.8802 62.2954 44.1805 61.6035C42.4809 60.9115 40.9343 59.8915 39.6291 58.6016C38.3238 57.3117 37.2856 55.7772 36.5736 54.0859C35.8617 52.3946 35.4899 50.5795 35.4797 48.7445C35.4344 41.2074 41.6745 34.9147 49.1281 34.7913C56.6797 34.6698 63.2827 40.734 63.3099 48.6774ZM37.5622 48.7155C37.5687 51.0545 38.268 53.3392 39.5719 55.2811C40.8759 57.223 42.7259 58.735 44.8886 59.6262C47.0512 60.5174 49.4293 60.7479 51.7229 60.2886C54.0164 59.8292 56.1223 58.7006 57.7749 57.0453C59.4275 55.3899 60.5525 53.282 61.008 50.9877C61.4635 48.6935 61.229 46.3157 60.3342 44.1546C59.4393 41.9935 57.9242 40.1459 55.9801 38.8453C54.0361 37.5446 51.7502 36.8491 49.4111 36.8466C47.854 36.8478 46.3124 37.1558 44.8744 37.753C43.4363 38.3502 42.1301 39.2249 41.0302 40.3271C39.9303 41.4293 39.0584 42.7375 38.4643 44.1768C37.8702 45.6161 37.5655 47.1584 37.5676 48.7155H37.5622Z" fill="#3EA9F4"/>
<path d="M34.3096 5.83833C34.5381 4.76264 34.7486 3.34955 35.1476 1.99087C35.563 0.574153 36.9834 -0.185906 38.4672 0.0390278C40.4209 0.334707 41.6725 1.24895 41.6653 2.86703C41.6653 4.93315 41.0249 6.95211 39.6499 8.53935C38.7085 9.62774 37.3371 9.57876 36.0709 8.9874C34.9027 8.44139 34.3205 7.4691 34.3096 5.83833ZM37.5512 7.27319C38.1117 7.31128 38.44 7.02467 38.6123 6.52039C38.9171 5.62428 39.2273 4.7318 39.5193 3.83569C39.8368 2.88335 39.6046 2.46069 38.6323 2.20311C37.5711 1.91469 37.1485 2.13599 36.9417 3.1101C36.7476 4.03523 36.5789 4.96399 36.3975 5.89275C36.2505 6.69634 36.7095 7.24235 37.5512 7.27319Z" fill="#3EA9F4"/>
<path d="M52.6762 9.49176C52.6526 10.6708 52.3333 11.4037 51.7021 11.9769C50.8477 12.7533 49.9879 13.5224 49.0972 14.2535C47.8129 15.3056 46.1404 15.175 44.925 13.9723C43.7097 12.7696 43.5446 11.0953 44.5731 9.80013C45.2987 8.88226 46.0824 7.98615 46.8878 7.13902C48.065 5.88919 49.8663 5.84203 51.1524 6.98302C52.005 7.74852 52.7215 8.57207 52.6762 9.49176ZM50.786 9.60967C50.3271 9.16705 49.9443 8.66095 49.4419 8.33988C48.9394 8.0188 48.5131 8.3816 48.1721 8.78975C47.559 9.51534 46.9222 10.2155 46.3109 10.9375C45.8629 11.4654 45.8774 11.9624 46.3236 12.4431C46.7699 12.9238 47.3522 13.0236 47.8782 12.5864C48.6945 11.9104 49.492 11.2126 50.2708 10.4931C50.4631 10.3153 50.5538 10.016 50.7933 9.60967H50.786Z" fill="#3EA9F4"/>
<path d="M49.5238 21.2118C49.514 20.6076 49.6894 20.0149 50.0263 19.5132C50.3632 19.0116 50.8455 18.6251 51.4086 18.4056C52.5179 17.9595 53.6524 17.5785 54.8061 17.2646C55.4189 17.125 56.0572 17.145 56.66 17.3226C58.2092 17.787 58.8368 19.2745 58.8731 21.005C58.9003 22.438 57.8573 23.5446 56.3643 23.8874C55.3503 24.1142 54.3309 24.3191 53.306 24.477C51.1564 24.7998 49.5075 23.3686 49.5238 21.2118ZM52.9287 22.4671C53.8357 22.2857 54.9948 22.0843 56.1267 21.7923C56.8197 21.6109 56.9376 21.0975 56.6419 20.1053C56.426 19.3797 55.9907 19.0314 55.3721 19.22C54.2964 19.5484 53.2316 19.9202 52.1795 20.3211C51.6353 20.5261 51.4847 21.0014 51.6154 21.5492C51.746 22.097 52.0326 22.4979 52.9196 22.4671H52.9287Z" fill="#3EA9F4"/>
<path d="M48.2699 54.6853C48.2699 52.6518 48.279 50.8904 48.2536 49.1308C48.2298 49.032 48.1851 48.9394 48.1225 48.8593C48.06 48.7792 47.9809 48.7134 47.8908 48.6665C47.4355 48.4198 46.9511 48.2293 46.4795 48.0134C43.6406 46.7164 43.8129 43.2971 46.0387 41.7244C46.5383 41.3781 47.0945 41.1215 47.6822 40.9661C48.1574 40.8409 48.2645 40.6523 48.2989 40.1952C48.3279 39.8033 48.4658 39.3154 48.7379 39.0705C49.322 38.539 50.2254 38.9979 50.3306 39.8269C50.3485 40.0818 50.3485 40.3376 50.3306 40.5924C51.2902 40.9552 52.1881 41.2509 53.0298 41.6536C53.7554 41.9946 53.9241 42.6023 53.6066 43.152C53.2892 43.7016 52.7232 43.7887 52.0158 43.4349C51.5187 43.1882 50.9891 43.005 50.3451 42.7402C50.3451 44.2857 50.3451 45.6952 50.3614 47.1046C50.3614 47.2171 50.5718 47.3731 50.7151 47.4275C51.1577 47.5962 51.6221 47.6978 52.0611 47.8756C55.4279 49.2361 55.9811 53.0853 53.0915 55.2893C52.4457 55.7809 51.6403 56.0893 50.8548 56.3559C50.4449 56.4974 50.3106 56.6389 50.3324 57.0434C50.358 57.2905 50.3415 57.5402 50.2834 57.7817C50.1419 58.2969 49.781 58.5944 49.2368 58.5563C48.995 58.5561 48.7627 58.463 48.5877 58.2961C48.4128 58.1293 48.3087 57.9016 48.2971 57.6602C48.2554 57.3065 48.2536 56.9473 48.132 56.7623C46.9493 56.3632 45.7503 56.004 44.5893 55.5469C43.891 55.2712 43.6987 54.6853 43.9689 54.1284C44.2556 53.537 44.7979 53.4245 45.5308 53.7166C46.3779 54.0522 47.2468 54.3261 48.2699 54.6853ZM50.365 54.3225C51.8779 53.9905 52.9173 52.8713 52.8774 51.6722C52.8429 50.5984 51.8598 49.7603 50.365 49.5462V54.3225ZM48.2536 42.9869C47.0926 43.2263 46.3598 44.0426 46.4178 44.9659C46.465 45.7042 47.2903 46.3645 48.2536 46.4171V42.9869Z" fill="#3EA9F4"/>
</svg>
