<svg width="64" height="66" viewBox="0 0 64 66" fill="none" xmlns="http://www.w3.org/2000/svg">
<path d="M38.6703 0.00339664C39.1968 0.264957 39.7301 0.51293 40.2481 0.789776C40.7662 1.06662 41.2214 0.95962 41.7088 0.757506C43.3937 0.0373656 44.6777 0.810157 44.5962 2.65127C44.5452 3.74167 44.1631 4.83377 43.8098 5.87831C43.5567 6.63072 43.1304 7.32708 42.7346 8.02854C42.3389 8.73 41.9092 9.40598 41.488 10.1023C42.3729 10.9516 42.7873 11.9604 42.6531 13.1952C42.6327 13.3786 42.8349 13.6385 43.003 13.7829C43.9219 14.5658 44.8713 15.3115 45.7902 16.0944C46.3693 16.5887 46.4407 17.1135 46.0483 17.5789C45.656 18.0443 45.1159 18.0256 44.5384 17.5517C43.6892 16.852 42.84 16.142 41.9907 15.4575C41.8549 15.3505 41.5678 15.2537 41.454 15.3234C40.0953 16.1726 38.5446 16.356 37.0109 16.4681C34.4955 16.6515 31.975 16.638 29.5004 16.0112C29.2699 15.9789 29.0463 15.9095 28.838 15.8057C28.1688 15.3658 27.6881 15.6087 27.126 16.0741C22.8221 19.6255 19.111 23.6423 16.7094 28.7292C15.2436 31.8322 14.4386 35.0932 14.5167 38.5462C14.549 39.9949 14.5863 39.9049 15.8992 40.4552C17.6185 41.1539 19.2945 41.9547 20.9182 42.8534C22.7294 43.8664 24.7368 44.4792 26.805 44.6504C29.8367 44.9425 32.8684 45.2669 35.8831 45.6966C38.8979 46.1263 40.9479 48.657 40.9411 51.6904V52.4208C41.4506 52.2084 41.882 52.0301 42.3168 51.8382C45.6435 50.3719 48.9685 48.8999 52.2918 47.4222C52.5768 47.2983 52.8224 47.0986 53.0018 46.8448C55.084 43.5956 55.7668 40.0136 55.3796 36.2193C54.7834 30.2849 51.9334 25.4189 48.0763 21.0454C47.8725 20.8144 47.5888 20.5172 47.6007 20.2641C47.621 19.8849 47.7843 19.5274 48.0576 19.2637C48.4448 18.9478 48.9204 19.0939 49.2465 19.4845C50.1348 20.5359 51.0485 21.5702 51.8672 22.6725C54.3809 26.0592 56.2101 29.7686 57.0084 33.9434C57.7557 37.8617 57.5179 41.69 55.9604 45.396C55.9129 45.5098 55.8738 45.627 55.7906 45.8733C56.4054 45.6151 56.9116 45.3841 57.4313 45.1939C59.8193 44.2988 62.0799 45.2618 62.885 47.5106C63.2015 48.3724 63.2115 49.3169 62.9133 50.1852C62.6151 51.0535 62.0269 51.7926 61.2477 52.2781C55.5477 55.8912 49.8477 59.5061 44.1478 63.1226C42.1143 64.4453 39.7337 65.134 37.3081 65.1013C32.8797 65.0662 28.4519 65.0662 24.0246 65.1013C22.2237 65.116 20.4366 64.7862 18.7594 64.1298C15.9774 63.0615 13.1783 62.0441 10.3861 61.0081C10.2689 60.9639 10.15 60.9283 9.99885 60.8773C9.93771 61.1898 9.89695 61.4752 9.82901 61.7537C9.52669 62.9562 8.57217 63.7918 7.33741 63.8326C5.77144 63.8784 4.20207 63.8835 2.6344 63.8326C1.93587 63.8259 1.2685 63.5425 0.778536 63.0446C0.28857 62.5466 0.0159698 61.8748 0.0204975 61.1762C-0.0151698 59.291 0.00691575 57.404 0.00521731 55.5187C0.00521731 50.1154 0.00521731 44.7132 0.00521731 39.3122C0.00521731 37.167 1.05995 36.1072 3.1881 36.1072H6.87541C8.75729 36.1072 9.87826 37.1993 9.93261 39.0761C9.93261 39.1593 9.9428 39.2459 9.95299 39.3954L12.6213 39.6315C12.6213 39.4056 12.6213 39.1984 12.6213 38.9929C12.4124 34.3069 13.7083 30.003 15.9655 25.9556C18.5335 21.3511 22.1105 17.6332 26.1986 14.3586C26.3685 14.2296 26.5213 14.0971 26.8083 13.8644C25.6559 13.8248 24.5044 13.9669 23.3962 14.2856C21.6553 14.7578 20.1437 15.5815 19.1501 17.173C18.8206 17.6944 18.289 17.7929 17.8304 17.5126C17.3718 17.2324 17.2308 16.6634 17.5518 16.1301C18.7407 14.1718 20.5683 13.0729 22.7151 12.4937C23.7885 12.2067 24.9231 12.1184 26.0203 11.9452C26.2411 11.9112 26.467 11.9078 26.8016 11.8806C25.5515 10.3282 24.0637 9.74227 22.2056 9.94948C20.2289 10.1737 18.238 9.67475 16.6007 8.54487C16.4551 8.42264 16.3365 8.27152 16.2523 8.10108C16.1681 7.93064 16.1201 7.74458 16.1115 7.55468C16.1115 7.3101 16.436 6.93644 16.6975 6.83793C16.8552 6.79797 17.0193 6.7897 17.1802 6.81361C17.3412 6.83752 17.4958 6.89312 17.6351 6.97721C18.9568 7.80393 20.5145 8.17112 22.0663 8.02175C24.1894 7.81963 26.0424 8.36144 27.6032 9.85607C27.7238 9.96986 28.0108 9.90872 28.2537 9.9308C27.4656 8.37502 26.7064 6.984 26.0457 5.54542C25.5651 4.48559 25.239 3.36122 25.4462 2.16042C25.7112 0.631821 26.7846 0.0271749 28.1637 0.686171C28.8652 1.02586 29.48 1.02586 30.1322 0.592757C30.5104 0.372623 30.9012 0.174702 31.3024 0H32.6986C33.2421 0.264957 33.7652 0.602947 34.3376 0.765998C34.7866 0.885215 35.2595 0.881108 35.7065 0.754109C36.2568 0.592756 36.7561 0.259862 37.2758 0L38.6703 0.00339664ZM38.9964 52.9659C38.9964 52.4904 38.9964 52.1167 38.9964 51.7363C39.0269 49.5657 37.5833 47.8299 35.4398 47.5717C32.7325 47.232 30.0218 46.8923 27.3043 46.663C24.5171 46.4269 21.9151 45.7255 19.5034 44.2682C18.3027 43.5583 17.0495 42.9411 15.7549 42.422C13.9223 41.6696 11.986 41.3741 9.92413 41.4284C9.92413 42.3099 9.93942 43.1523 9.92413 43.9931C9.90885 44.6283 9.5148 45.0121 8.94583 45.0121C8.37685 45.0121 8.04904 44.6504 8.00828 44.0321C7.99639 43.8419 8.00828 43.6517 8.00828 43.4598C8.00828 42.0195 8.00828 40.5724 8.00828 39.1389C8.00828 38.3475 7.70595 38.0451 6.93995 38.0383C5.60498 38.0264 4.27001 38.0231 2.93673 38.0383C2.24207 38.0383 1.93635 38.3678 1.93635 39.0574C1.93635 46.3437 1.93635 53.6312 1.93635 60.9198C1.93635 61.6263 2.23358 61.9184 2.93843 61.9235C4.18849 61.9235 5.43853 61.9235 6.68859 61.9235C7.80277 61.9235 8.01168 61.7146 8.01168 60.5835C8.01168 56.7484 8.01168 52.9139 8.01168 49.0799C8.006 48.847 8.01394 48.6139 8.03546 48.3819C8.04984 48.167 8.14278 47.965 8.29659 47.8143C8.4504 47.6636 8.6543 47.5749 8.86938 47.5649C9.08213 47.5283 9.3009 47.5724 9.48281 47.6886C9.66472 47.8049 9.79666 47.9849 9.85279 48.1933C9.91999 48.4364 9.94808 48.6887 9.93601 48.9406C9.93601 52.0131 9.95301 55.0839 9.92583 58.1564C9.92583 58.6472 10.0957 58.8358 10.5322 59.0056C13.5667 60.1164 16.595 61.2436 19.6171 62.3872C21.0421 62.9304 22.5557 63.2034 24.0807 63.1923C28.2333 63.1685 32.386 63.1294 36.537 63.2042C39.0868 63.27 41.5947 62.547 43.7181 61.1338C49.1684 57.5993 54.6815 54.1617 60.1675 50.6832C61.1084 50.0871 61.4481 49.0273 61.0286 48.0354C60.6091 47.0435 59.7072 46.5917 58.5879 46.8787C58.181 46.9877 57.7834 47.1291 57.399 47.3016C51.8508 49.7429 46.2991 52.183 40.7441 54.6219C40.3383 54.7943 39.9026 54.8849 39.4617 54.8886C36.1787 54.909 32.8956 54.9022 29.6108 54.8886C29.338 54.8977 29.0656 54.8598 28.8057 54.7765C28.3777 54.6219 28.2011 54.267 28.2435 53.8169C28.2485 53.6132 28.3266 53.4181 28.4635 53.2672C28.6004 53.1163 28.7869 53.0196 28.9892 52.9948C29.2196 52.9602 29.4526 52.946 29.6855 52.9524C32.2275 52.9524 34.7695 52.9524 37.3115 52.9524L38.9964 52.9659ZM27.4147 2.44916L27.2686 2.57484C27.3381 3.06707 27.4339 3.55523 27.5557 4.0372C28.1416 5.93606 29.1743 7.60393 30.2511 9.25482C30.3822 9.41022 30.5616 9.51724 30.7606 9.55884C33.648 10.2977 36.5353 10.1312 39.4227 9.41957C39.5598 9.3826 39.6799 9.29915 39.7624 9.18348C40.8918 7.47145 41.9704 5.73055 42.5512 3.73658C42.6599 3.35782 42.6701 2.9502 42.7533 2.36593C41.2077 3.21515 39.9322 2.92812 38.6991 2.12475C38.1896 1.78506 37.658 1.90226 37.14 2.18759C36.745 2.42851 36.3261 2.62773 35.8899 2.78205C34.8471 3.10306 33.8858 2.81942 32.9924 2.25553C32.4574 1.91584 31.9071 1.746 31.333 2.12815C30.0829 2.9485 28.8023 3.19817 27.4147 2.44916ZM34.6857 14.8189C36.3604 14.5557 38.0453 14.3009 39.725 14.0223C40.3178 13.9238 40.6439 13.5264 40.7101 12.937C40.8358 11.8331 40.1683 11.2573 39.0592 11.4339C37.8126 11.6343 36.5608 11.8365 35.304 11.9435C33.4985 12.0878 31.7253 11.7855 29.9641 11.4101C29.2762 11.2641 28.765 11.6394 28.6155 12.3205C28.4151 13.2292 28.7751 13.8984 29.6957 14.0648C31.3398 14.3603 32.9822 14.5642 34.6857 14.8189Z" fill="#F9CE2B"/>
<path d="M33.9484 21.9506C33.9484 21.6279 33.9331 21.1846 33.9484 20.743C33.9722 20.1503 34.356 19.7477 34.8757 19.7358C35.3955 19.7239 35.8269 20.1554 35.8591 20.7668C35.8795 21.1676 35.7419 21.6755 35.9373 21.9387C36.1326 22.202 36.6744 22.1561 37.0311 22.3192C37.6503 22.5851 38.2473 22.9004 38.8161 23.2618C39.3783 23.6372 39.4497 24.235 39.0896 24.6868C38.7295 25.1386 38.2404 25.1386 37.6765 24.8006C37.1415 24.4847 36.5725 24.2248 35.9186 23.8885C35.8914 24.2282 35.8642 24.3981 35.8625 24.5815C35.8625 26.212 35.8812 27.8425 35.849 29.4713C35.849 29.9367 36.0188 30.1065 36.4213 30.2832C37.2468 30.6415 38.1198 30.9829 38.8127 31.5349C40.3294 32.7391 40.7795 34.4223 40.3923 36.2719C39.9524 38.3644 38.704 39.8386 36.6438 40.5418C36.4077 40.6233 36.1615 40.6742 35.8608 40.7541C35.8608 41.2347 35.8727 41.7188 35.8608 42.2011C35.8422 42.8483 35.4787 43.2389 34.9131 43.2474C34.3475 43.2559 33.9722 42.889 33.9484 42.2283C33.9331 41.7867 33.9484 41.3434 33.9484 40.9375C33.0703 40.7065 32.2279 40.5299 31.4194 40.2581C30.928 40.0648 30.4606 39.8151 30.0267 39.5142C29.4883 39.1745 29.3473 38.6327 29.6462 38.1555C29.9452 37.6782 30.47 37.578 31.0322 37.882C32.6796 38.7737 32.8699 38.8365 33.9025 38.8178C33.9161 38.6599 33.9433 38.4968 33.9433 38.3338C33.9433 36.1751 33.9433 34.0146 33.9535 31.8559C33.9734 31.7012 33.9382 31.5444 33.854 31.413C33.7698 31.2816 33.6421 31.1841 33.4932 31.1375C33.0295 30.9371 32.5947 30.6721 32.148 30.4326C29.045 28.78 29.6004 24.6579 31.8084 23.0682C32.4249 22.6198 33.1722 22.3429 33.9484 21.9506ZM35.9033 32.1939V38.682C37.3691 38.3915 38.5342 36.9105 38.5614 35.3462C38.5902 33.6835 37.7104 32.6253 35.9033 32.1939ZM33.945 29.1078V24.1824C32.785 24.41 31.968 25.4494 31.9238 26.6689C31.8797 27.8884 32.5285 28.7138 33.945 29.1028V29.1078Z" fill="#F9CE2B"/>
</svg>
