<svg width="44" height="42" viewBox="0 0 44 42" fill="none" xmlns="http://www.w3.org/2000/svg">
<g clip-path="url(#clip0_1_233)">
<path d="M41.2443 16.5032C40.5833 11.9233 38.2492 7.73051 34.6719 4.69669C31.0946 1.66286 26.5148 -0.0078125 21.7755 -0.0078125C17.0362 -0.0078125 12.4563 1.66286 8.87903 4.69669C5.30172 7.73051 2.96772 11.9233 2.30664 16.5032H6.13696C6.78201 12.9126 8.70367 9.65886 11.564 7.31426C14.4243 4.96967 18.0401 3.68435 21.7755 3.68435C25.5109 3.68435 29.1267 4.96967 31.987 7.31426C34.8473 9.65886 36.769 12.9126 37.414 16.5032H35.3066L39.6557 24.4946L44.0001 16.5032H41.2443Z" fill="url(#paint0_linear_1_233)"/>
<path d="M2.75188 25.5018C3.41296 30.0817 5.74697 34.2745 9.32427 37.3083C12.9016 40.3422 17.4814 42.0128 22.2207 42.0128C26.9601 42.0128 31.5399 40.3422 35.1172 37.3083C38.6945 34.2745 41.0285 30.0817 41.6896 25.5018H37.8593C37.2142 29.0924 35.2925 32.3462 32.4322 34.6908C29.5719 37.0353 25.9561 38.3207 22.2207 38.3207C18.4853 38.3207 14.8695 37.0353 12.0092 34.6908C9.14891 32.3462 7.22726 29.0924 6.5822 25.5018H8.6942L4.34515 17.5059L-0.00390625 25.5018H2.75188Z" fill="url(#paint1_linear_1_233)"/>
<g clip-path="url(#clip1_1_233)">
<path d="M14.7374 30.4914C14.3255 29.0868 13.9203 27.7042 13.5117 26.3118C13.9216 26.2477 14.3055 26.1946 14.6866 26.1286C15.4657 25.9894 16.1678 25.6828 16.8318 25.2932C17.2029 25.0752 17.5787 24.8657 17.9552 24.6526C18.9542 24.0926 20.0088 24.0156 21.0921 24.3973C21.712 24.6159 22.3111 24.8859 22.9183 25.1301C23.5663 25.3952 24.2229 25.6608 24.9371 25.6853C25.472 25.7036 26.0123 25.6303 26.5453 25.5631C27.0903 25.4966 27.6299 25.3799 28.1809 25.4868C28.6156 25.5711 28.8202 25.7769 28.8831 26.1585C28.9459 26.5402 28.7955 26.9048 28.4197 27.0379C27.8889 27.2328 27.3393 27.3817 26.778 27.4825C25.7802 27.6611 24.7625 27.73 23.7468 27.6877C23.0875 27.6541 22.4642 27.5082 21.9199 27.1473C21.7614 27.0422 21.6043 26.9946 21.4599 27.1582C21.3408 27.2926 21.393 27.4355 21.607 27.5741C22.2844 28.0095 23.0514 28.1848 23.8665 28.2013C25.3376 28.2294 26.7947 28.1079 28.2043 27.6883C28.4406 27.6149 28.6654 27.5137 28.873 27.3873C29.0265 27.3002 29.156 27.182 29.2514 27.0419C29.3469 26.9018 29.4057 26.7435 29.4234 26.5793C29.4461 26.3564 29.5705 26.2239 29.7303 26.0908C30.5709 25.3818 31.4362 24.699 32.4579 24.2135C32.8454 24.0411 33.2495 23.9014 33.6649 23.7964C33.802 23.7579 33.9759 23.8288 34.133 23.8501C34.1069 23.993 34.1297 24.1689 34.0454 24.2734C33.7264 24.6715 33.4048 25.074 33.0277 25.4251C31.1894 27.1305 29.1276 28.6221 26.889 29.866C25.4065 30.6947 23.7896 30.994 22.0797 30.8749C21.5722 30.8395 21.062 30.7106 20.5772 30.5598C18.7088 29.9796 16.8358 29.976 14.9481 30.4541C14.8886 30.4657 14.8311 30.4737 14.7374 30.4914Z" fill="url(#paint2_linear_1_233)"/>
<path d="M14.6243 32.0822L12.3809 32.6318L10.4082 25.91L12.6517 25.3555C13.3083 27.5991 13.9617 29.8233 14.6243 32.0822Z" fill="#FD7248"/>
<path d="M29.3581 25.7079L29.0352 25.2591C29.3207 25.0026 29.6096 24.7308 29.9118 24.4725C30.8019 23.7104 31.7354 22.9989 32.8079 22.4572C33.0252 22.346 33.2565 22.2594 33.4967 22.1995C33.8311 22.1195 34.0898 22.3162 34.1132 22.627C34.142 23.0099 33.936 23.2407 33.5308 23.2988C32.9609 23.3824 32.4196 23.5844 31.9487 23.8893C31.1583 24.3943 30.4026 24.9446 29.6343 25.4771C29.5427 25.5424 29.4618 25.62 29.3581 25.7079Z" fill="url(#paint3_linear_1_233)"/>
<path d="M28.0508 24.8881C28.6025 24.2286 29.1722 23.5666 29.865 23.0078C30.1921 22.7514 30.5457 22.5246 30.9208 22.3306C31.0718 22.2465 31.2451 22.2017 31.4219 22.2012C31.5987 22.2006 31.7723 22.2443 31.9239 22.3275C31.6136 22.5351 31.306 22.7135 31.0338 22.929C30.305 23.5067 29.5808 24.0893 28.878 24.6921C28.6305 24.9016 28.4333 25.1135 28.0508 24.8881Z" fill="url(#paint4_linear_1_233)"/>
<path d="M26.543 25.0361C27.0605 24.1457 27.6263 23.3262 28.5243 22.7515C28.8968 22.5134 29.1455 22.5036 29.3622 22.6673L27.6905 24.4755C27.6691 24.4987 27.649 24.5238 27.6289 24.5476C27.2511 24.9903 27.2511 24.9903 26.543 25.0361Z" fill="url(#paint5_linear_1_233)"/>
<path d="M23.3421 9.22266C23.4408 9.28825 23.5352 9.359 23.625 9.43456C23.7051 9.51923 23.7795 9.60836 23.8476 9.70144C24.0703 9.5622 24.3077 9.58602 24.5431 9.68189C24.8895 9.82235 25.0627 10.1454 24.9169 10.5515C24.725 11.0828 24.4682 11.5958 24.2288 12.1124C24.2094 12.1546 24.1111 12.1888 24.0489 12.1894C23.4404 12.1951 22.8319 12.1951 22.2234 12.1894C22.1859 12.1877 22.1493 12.1784 22.1161 12.1624C22.083 12.1464 22.0541 12.1239 22.0314 12.0966C21.8014 11.6831 21.5747 11.2685 21.3701 10.8446C21.3014 10.6824 21.2591 10.5118 21.2444 10.3384C21.1775 9.81747 21.9352 9.42235 22.2949 9.64281L22.8921 9.22327L23.3421 9.22266Z" fill="url(#paint6_linear_1_233)"/>
<path d="M23.1049 14.1464C23.6131 14.1464 24.122 14.1415 24.6302 14.1506C24.7347 14.1527 24.8352 14.1874 24.9151 14.249C26.3147 15.4777 27.3278 16.9177 27.7637 18.6636C27.9403 19.369 27.9717 20.0823 27.7805 20.7894C27.525 21.733 26.9279 22.4603 25.9917 22.914C24.0525 23.8539 22.0952 23.86 20.1707 22.892C18.9356 22.2704 18.3431 21.2548 18.2983 19.9858C18.2455 18.55 18.8112 17.2768 19.625 16.0823C20.0788 15.4152 20.6272 14.806 21.256 14.2703C21.3467 14.1987 21.4612 14.157 21.581 14.1519C22.0872 14.1397 22.5961 14.1464 23.1049 14.1464ZM22.6843 21.6181C22.6843 21.7513 22.677 21.8728 22.6843 21.9937C22.6854 22.0512 22.7012 22.1076 22.7303 22.1585C22.7594 22.2095 22.8011 22.2535 22.8521 22.2872C22.9031 22.3208 22.962 22.3432 23.0241 22.3525C23.0862 22.3617 23.1498 22.3577 23.2099 22.3406C23.3062 22.3227 23.3911 22.2715 23.447 22.1978C23.503 22.124 23.5256 22.0334 23.5102 21.9449C23.4747 21.6725 23.6098 21.565 23.8652 21.4478C24.6008 21.1094 24.9251 20.5281 24.8904 19.783C24.8576 19.0618 24.4697 18.5794 23.6987 18.3827C23.5403 18.3424 23.5148 18.2636 23.5162 18.1384C23.5209 17.6817 23.5162 17.2224 23.5162 16.7674V16.4621L23.6165 16.42C23.775 16.5855 23.9455 16.743 24.0893 16.9189C24.2517 17.1168 24.4617 17.1852 24.6704 17.0771C24.879 16.969 24.9445 16.7546 24.8282 16.5445C24.6469 16.2154 24.3888 15.9339 24.013 15.8032C23.6787 15.6847 23.454 15.562 23.4854 15.1809C23.5015 14.991 23.2995 14.8841 23.0809 14.8902C22.9833 14.8867 22.888 14.9176 22.8147 14.9765C22.7414 15.0354 22.6957 15.1177 22.687 15.2065C22.6703 15.303 22.6977 15.4074 22.673 15.5015C22.6536 15.5748 22.6007 15.6719 22.5339 15.6987C21.5669 16.0945 21.1356 16.8481 21.3456 17.7916C21.4746 18.3705 21.8926 18.6899 22.4824 18.8664C22.5559 18.8884 22.6696 18.9537 22.6703 19.0013C22.6837 19.5913 22.679 20.1818 22.679 20.7723L22.6001 20.82C22.4489 20.6814 22.2951 20.5452 22.1474 20.4035C22.0738 20.3333 22.0263 20.2337 21.9414 20.1806C21.8696 20.1326 21.7817 20.1092 21.693 20.1145C21.6042 20.1197 21.5203 20.1533 21.4559 20.2093C21.3788 20.2636 21.3259 20.3417 21.3072 20.4291C21.2885 20.5164 21.3053 20.6069 21.3543 20.6838C21.6251 21.1778 22.0671 21.4765 22.6843 21.6181V21.6181Z" fill="url(#paint7_linear_1_233)"/>
<path d="M23.0675 13.6295C22.5084 13.6295 21.9501 13.6392 21.3917 13.6264C20.9624 13.6166 20.723 13.2667 20.9143 12.9546C20.9594 12.8765 21.028 12.8117 21.1119 12.7678C21.1959 12.7239 21.2917 12.7027 21.3884 12.7067C22.5305 12.7067 23.6727 12.703 24.8148 12.7067C24.8818 12.7043 24.9487 12.7141 25.0115 12.7355C25.0743 12.7569 25.1319 12.7895 25.1808 12.8314C25.2298 12.8732 25.2691 12.9236 25.2966 12.9794C25.3241 13.0353 25.3392 13.0956 25.341 13.1568C25.3497 13.4218 25.1451 13.6209 24.8181 13.627C24.2344 13.638 23.6506 13.6301 23.0675 13.6301V13.6295Z" fill="url(#paint8_linear_1_233)"/>
<path d="M22.6844 21.6188C22.0671 21.4772 21.6251 21.1785 21.3557 20.6845C21.3066 20.6076 21.2899 20.5171 21.3086 20.4298C21.3273 20.3424 21.3802 20.2643 21.4573 20.21C21.5217 20.154 21.6056 20.1204 21.6943 20.1152C21.7831 20.1099 21.871 20.1333 21.9428 20.1813C22.0277 20.2344 22.0765 20.334 22.1487 20.4042C22.2965 20.5459 22.4503 20.682 22.6014 20.8207L22.6803 20.773C22.6803 20.1825 22.685 19.592 22.6716 19.002C22.6716 18.9544 22.5573 18.8891 22.4837 18.8671C21.896 18.6906 21.4807 18.3712 21.347 17.7923C21.137 16.8488 21.5683 16.0952 22.5352 15.6994C22.6021 15.6726 22.6549 15.5773 22.6743 15.5022C22.6991 15.4081 22.6743 15.3037 22.6884 15.2072C22.697 15.1184 22.7428 15.0361 22.8161 14.9772C22.8894 14.9183 22.9847 14.8874 23.0822 14.8909C23.3009 14.8848 23.5028 14.9917 23.4868 15.1816C23.4554 15.5626 23.6787 15.6854 24.0144 15.8039C24.3902 15.9358 24.6483 16.2161 24.8295 16.5452C24.9459 16.7553 24.8777 16.9727 24.6717 17.0778C24.4658 17.1828 24.2531 17.1175 24.0906 16.9196C23.9469 16.7437 23.7763 16.5862 23.6179 16.4207L23.5175 16.4628V16.7681C23.5175 17.2249 23.5175 17.6842 23.5175 18.1391C23.5175 18.2668 23.5416 18.3456 23.7001 18.3834C24.4711 18.5801 24.859 19.0625 24.8917 19.7837C24.9265 20.5288 24.6022 21.1101 23.8666 21.4485C23.6112 21.5657 23.4761 21.6732 23.5115 21.9456C23.527 22.0341 23.5043 22.1247 23.4484 22.1985C23.3925 22.2722 23.3075 22.3234 23.2113 22.3413C23.1512 22.3584 23.0876 22.3624 23.0255 22.3532C22.9634 22.3439 22.9045 22.3215 22.8535 22.2879C22.8025 22.2542 22.7608 22.2102 22.7317 22.1592C22.7025 22.1083 22.6868 22.0519 22.6857 21.9944C22.679 21.8735 22.6844 21.752 22.6844 21.6188ZM22.6603 18.0732V16.4939C22.2912 16.7315 22.1253 17.0173 22.1507 17.3886C22.1741 17.6927 22.3065 17.9407 22.6603 18.0738V18.0732ZM23.5343 20.7211C23.9181 20.5245 24.0866 20.2014 24.0391 19.788C24.005 19.4906 23.8265 19.2769 23.5343 19.1987V20.7211Z" fill="white"/>
<path d="M22.659 18.0734C22.3053 17.9409 22.1729 17.6929 22.1495 17.3888C22.1214 17.0175 22.2899 16.7317 22.659 16.4941V18.0734Z" fill="url(#paint9_linear_1_233)"/>
<path d="M23.5332 20.7217V19.1992C23.8254 19.2774 24.0013 19.4911 24.0381 19.7885C24.0855 20.202 23.917 20.525 23.5332 20.7217Z" fill="url(#paint10_linear_1_233)"/>
</g>
</g>
<defs>
<linearGradient id="paint0_linear_1_233" x1="2.30664" y1="12.2434" x2="44.0001" y2="12.2434" gradientUnits="userSpaceOnUse">
<stop stop-color="#3EE2B9"/>
<stop offset="1" stop-color="#1CADA4"/>
</linearGradient>
<linearGradient id="paint1_linear_1_233" x1="-0.00390625" y1="29.7593" x2="41.6896" y2="29.7593" gradientUnits="userSpaceOnUse">
<stop stop-color="#FC914D"/>
<stop offset="1" stop-color="#E96362"/>
</linearGradient>
<linearGradient id="paint2_linear_1_233" x1="13.5117" y1="27.3426" x2="34.133" y2="27.3426" gradientUnits="userSpaceOnUse">
<stop stop-color="#FC914D"/>
<stop offset="1" stop-color="#E96362"/>
</linearGradient>
<linearGradient id="paint3_linear_1_233" x1="29.0352" y1="23.9448" x2="34.1159" y2="23.9448" gradientUnits="userSpaceOnUse">
<stop stop-color="#FC914D"/>
<stop offset="1" stop-color="#E96362"/>
</linearGradient>
<linearGradient id="paint4_linear_1_233" x1="28.0508" y1="23.593" x2="31.9239" y2="23.593" gradientUnits="userSpaceOnUse">
<stop stop-color="#FC914D"/>
<stop offset="1" stop-color="#E96362"/>
</linearGradient>
<linearGradient id="paint5_linear_1_233" x1="26.543" y1="23.7964" x2="29.3622" y2="23.7964" gradientUnits="userSpaceOnUse">
<stop stop-color="#FC914D"/>
<stop offset="1" stop-color="#E96362"/>
</linearGradient>
<linearGradient id="paint6_linear_1_233" x1="21.2402" y1="10.7082" x2="24.9687" y2="10.7082" gradientUnits="userSpaceOnUse">
<stop stop-color="#3EE2B9"/>
<stop offset="1" stop-color="#1CADA4"/>
</linearGradient>
<linearGradient id="paint7_linear_1_233" x1="18.2949" y1="18.8815" x2="27.9106" y2="18.8815" gradientUnits="userSpaceOnUse">
<stop stop-color="#3EE2B9"/>
<stop offset="1" stop-color="#1CADA4"/>
</linearGradient>
<linearGradient id="paint8_linear_1_233" x1="20.8477" y1="13.169" x2="25.3413" y2="13.169" gradientUnits="userSpaceOnUse">
<stop stop-color="#3EE2B9"/>
<stop offset="1" stop-color="#1CADA4"/>
</linearGradient>
<linearGradient id="paint9_linear_1_233" x1="22.1465" y1="17.2838" x2="22.659" y2="17.2838" gradientUnits="userSpaceOnUse">
<stop stop-color="#3EE2B9"/>
<stop offset="1" stop-color="#1CADA4"/>
</linearGradient>
<linearGradient id="paint10_linear_1_233" x1="23.5332" y1="19.9604" x2="24.0459" y2="19.9604" gradientUnits="userSpaceOnUse">
<stop stop-color="#3EE2B9"/>
<stop offset="1" stop-color="#1CADA4"/>
</linearGradient>
<clipPath id="clip0_1_233">
<rect width="44" height="42" fill="white"/>
</clipPath>
<clipPath id="clip1_1_233">
<rect width="23.722" height="23.4114" fill="white" transform="translate(10.4082 9.22266)"/>
</clipPath>
</defs>
</svg>
